<?xml version="1.0" encoding="UTF-8" standalone="no"?>
<svg
   width="731.66998"
   height="511.12"
   viewBox="0 0 731.67 511.12"
   version="1.1"
   id="svg19"
   sodipodi:docname="accepted-here.svg"
   xml:space="preserve"
   inkscape:export-filename="undraw_undraw_undraw_undraw_undraw_undraw_undraw_shopping_bags_2ude_-1-_mnw3_-2-_q7y0_muk6_-2-_l1mh_-2-_m4xj_wqq4.svg"
   inkscape:export-xdpi="96"
   inkscape:export-ydpi="96"
   inkscape:version="1.3.2 (091e20e, 2023-11-25, custom)"
   xmlns:inkscape="http://www.inkscape.org/namespaces/inkscape"
   xmlns:sodipodi="http://sodipodi.sourceforge.net/DTD/sodipodi-0.dtd"
   xmlns="http://www.w3.org/2000/svg"
   xmlns:svg="http://www.w3.org/2000/svg"><defs
     id="defs19" /><sodipodi:namedview
     id="namedview19"
     pagecolor="#505050"
     bordercolor="#eeeeee"
     borderopacity="1"
     inkscape:showpageshadow="0"
     inkscape:pageopacity="0"
     inkscape:pagecheckerboard="0"
     inkscape:deskcolor="#505050"
     showgrid="true"
     inkscape:zoom="1.1015895"
     inkscape:cx="365.83499"
     inkscape:cy="255.53983"
     inkscape:window-width="1920"
     inkscape:window-height="1017"
     inkscape:window-x="-8"
     inkscape:window-y="-8"
     inkscape:window-maximized="1"
     inkscape:current-layer="svg19"><inkscape:grid
       id="grid19"
       units="px"
       originx="0"
       originy="0"
       spacingx="1"
       spacingy="1"
       empcolor="#0099e5"
       empopacity="0.30196078"
       color="#0099e5"
       opacity="0.14901961"
       empspacing="5"
       dotted="false"
       gridanglex="30"
       gridanglez="30"
       visible="true" /></sodipodi:namedview><path
     d="M 561.95302,378.81658 H 96.660035 c -0.99774,-0.0213 -1.78931,-0.84746 -1.76797,-1.84521 0.0207,-0.96771 0.80026,-1.74727 1.76797,-1.76796 H 561.95303 c 0.99774,0.0213 1.78931,0.84746 1.76794,1.84521 -0.0207,0.96771 -0.80023,1.74727 -1.76794,1.76796 z"
     fill="#cacaca"
     id="path14-9-5" /><polygon
     points="475.48199,271.88528 473.327,255.1633 476.30499,250.2693 502.026,257.32928 502.84799,261.24429 503.54599,275.6853 "
     fill="#a0616a"
     id="polygon6"
     transform="translate(-53.119025,-64.535123)" /><path
     d="m 422.38983,206.43804 c -3.97705,1.03705 -7.19592,3.95279 -8.62012,7.80817 -0.50397,1.08948 -0.49072,2.34793 0.0361,3.42654 0.4118,0.77005 1.32892,1.11777 2.14777,0.8143 0.82245,-0.44318 1.47845,-1.14185 1.86902,-1.99057 0.573,-1.08914 1.06549,-2.21878 1.47351,-3.37985 0.66815,-1.75208 2.09351,-4.67673 0.0585,-6.04651 -1.71155,-1.15201 -3.9776,-0.7045 -5.90344,-0.78351 -2.08112,-0.0854 -4.39417,-0.88235 -5.13348,-3.03937 -0.71899,-2.09769 0.96667,-4.07077 2.78381,-4.86847 2.21844,-0.9198 4.74878,-0.67877 6.75366,0.64334 1.95148,1.35275 3.34503,3.3685 3.9212,5.67206 0.089,0.37198 -0.14038,0.7457 -0.51239,0.83472 -0.35419,0.0847 -0.71344,-0.11926 -0.82214,-0.46683 -0.51025,-2.13724 -1.85596,-3.98071 -3.73602,-5.11801 -1.86792,-1.07773 -4.18872,-0.98706 -5.96686,0.23312 -0.93304,0.58066 -1.36639,1.71072 -1.06091,2.76636 0.46881,0.93674 1.3515,1.59796 2.38226,1.78455 2.19574,0.53091 4.49237,-0.15613 6.68103,0.54514 2.03723,0.52206 3.33582,2.51675 2.98877,4.591 -0.22772,1.2446 -0.59662,2.4592 -1.09943,3.62027 -0.42719,1.19376 -0.92651,2.36041 -1.4953,3.49356 -0.8689,1.64224 -2.43567,3.42001 -4.5033,2.93839 -2.35651,-0.54886 -2.91602,-3.3002 -2.41101,-5.3237 1.36646,-4.66922 5.08997,-8.27432 9.8009,-9.48926 0.37207,-0.0887 0.74561,0.14102 0.83429,0.51309 0.0843,0.35379 -0.11932,0.71252 -0.46637,0.82141 v 6e-5 z"
     fill="#cccccc"
     id="path12-2"
     style="opacity:0.6" /><path
     d="m 466.78821,237.95705 c -0.58759,-3.92361 -1.55206,-7.78146 -2.88,-11.51999 v -0.01 c -1.11169,-3.16122 -2.49695,-6.21948 -4.14001,-9.14001 -0.005,1.2e-4 -0.01,-0.004 -0.01,-0.01 v -4.3e-4 c -2.36548,-4.40219 -5.45154,-8.37717 -9.13,-11.76001 l -0.39001,-0.41 h -0.1 l -28.15997,-0.69 h -0.28998 l -0.32001,-0.01 c 0,0 -0.12,0.35001 -0.34998,1.01001 -0.009,0.0414 -0.0222,0.0816 -0.04,0.12 -0.08,0.26001 -0.17999,0.56 -0.29999,0.89001 -0.07,0.22 -0.15002,0.45001 -0.22998,0.70001 -0.09,0.26999 -0.19,0.54999 -0.28998,0.85001 -0.78003,2.32996 -1.91998,5.70999 -3.32001,9.89999 -0.21002,0.64001 -0.42999,1.29999 -0.65997,1.98999 -5.34003,16.07001 -13.92999,42.32999 -21.42999,67.22 h 26.59998 c 2.58002,-7.46002 5.32001,-18.09998 5.32001,-18.09998 1.07001,-1.27002 1.01001,-4.71997 1.01001,-4.71997 l 8.35999,-8.78003 6.02002,31.59998 h 25.26001 l 0.19,-35.16998 v -0.29999 c 0.19696,-4.56589 -0.0442,-9.14014 -0.72015,-13.66 z"
     fill="#cccccc"
     id="path9-8"
     style="opacity:0.6" /><path
     d="m 448.61511,111.90145 v 0.0112 c -0.002,0.69522 0.0871,1.3877 0.26379,2.06006 0.0281,0.11789 0.0618,0.24136 0.10107,0.35925 v 0.006 c 0.76337,2.43408 2.62262,4.37021 5.0238,5.23154 0.17401,0.0673 0.35364,0.12347 0.53326,0.17401 0.37842,0.10974 0.76514,0.18857 1.15631,0.23575 0.35144,0.0498 0.70599,0.0742 1.06091,0.073 0.2774,10e-4 0.55469,-0.012 0.83075,-0.0393 0.646,-0.0654 1.28137,-0.21057 1.89166,-0.43222 0.0956,-0.0278 0.18927,-0.0615 0.28064,-0.10101 0.0459,-0.0163 0.0909,-0.035 0.13477,-0.0561 4.15063,-1.73746 6.10693,-6.51068 4.36945,-10.66132 -0.052,-0.12424 -0.10706,-0.24716 -0.16516,-0.36868 l -0.006,-0.006 c -0.39905,-0.83554 -0.94037,-1.59531 -1.59979,-2.2453 -1.47064,-1.46506 -2.11871,-5.13666 -4.35278,-5.13666 -0.10681,-0.002 -0.21362,0.002 -0.32001,0.0112 -1.49872,0.0505 -4.26917,3.28433 -5.44794,4.04773 -0.87549,0.55307 -1.6344,1.27197 -2.23407,2.11621 -0.62622,0.86847 -1.07275,1.85315 -1.31354,2.89642 -0.13763,0.59833 -0.20728,1.21027 -0.20752,1.82422 z"
     fill="#2f2e41"
     id="path10" /><path
     d="m 458.55969,109.06728 c 1.26398,1.47159 3.24304,2.04361 5.02832,2.80942 6.39685,2.80627 10.99585,8.58957 12.28943,15.45407 0.49359,2.754 0.42902,5.60501 1.20868,8.28983 0.77502,2.68484 2.69403,5.319 5.44812,5.78491 1.86371,0.3183 3.73199,-0.40134 5.48499,-1.11179 0.96411,-0.38748 1.92834,-0.77652 2.89246,-1.16711 -1.00562,-2.52344 -2.00977,-5.04681 -3.01239,-7.57019 1.61133,2.38144 3.48529,4.57416 5.58655,6.53687 3.4552,-1.39319 6.91351,-2.78638 10.375,-4.17953 -8.51587,0.0323 -7.06274,-8.23447 -8.96802,-16.5289 -1.04718,-4.5578 -9.96442,-7.64401 -11.71283,-11.98038 -2.73077,-6.798523 -10.45581,-10.096073 -17.25433,-7.365303 -2.92963,1.17673 -5.34351,3.359713 -6.80786,6.156653 -1.74829,0.69656 -1.79901,3.4183 -0.55811,4.87146 z"
     fill="#2f2e41"
     id="path11-6"
     style="opacity:0.6" /><path
     d="m 426.98987,122.88225 c 0,8.91721 4.46094,17.9913 13.37817,17.9913 8.91723,0 21.22052,-6.4584 18.45264,-20.29788 -1.74884,-8.74399 -6.76752,-13.83945 -15.68469,-13.83945 -8.91718,-6e-5 -16.14606,7.2287 -16.14612,16.14587 v 1.5e-4 z"
     fill="#2f2e41"
     id="path2-4" /><circle
     cx="439.80365"
     cy="127.35786"
     r="13.28229"
     fill="#a0616a"
     id="circle6" /><path
     d="m 453.7041,130.83992 c -0.12036,-0.019 -0.24078,-0.0444 -0.36115,-0.0634 -2.07184,-0.36746 -4.14368,-0.72855 -6.20917,-1.10245 l -0.19012,-4.68216 -2.50262,4.19427 c -5.70868,1.89441 -11.0498,0.8237 -16.07416,-1.53958 -1.65729,-0.78674 -3.26532,-1.67328 -4.81531,-2.65469 -1.08081,-6.59528 1.64587,-11.79291 8.6485,-12.45639 0.21747,-0.0206 0.37378,-0.20273 0.5639,-0.29785 l 0.006,-0.006 v -2.4e-4 c 0.32312,-0.15204 0.65265,-0.29776 0.98212,-0.43079 5.26477,-2.0575 11.24384,-0.89819 15.35815,2.97784 4.15607,4.2283 5.8855,10.27515 4.59357,16.06155 z"
     fill="#2f2e41"
     id="path8-7" /><path
     d="m 526.42822,288.08702 h -164 c -3.86414,-0.005 -6.99548,-3.13586 -7,-7 V 58.087017 c 0.004,-3.8642 3.1358,-6.99567 7,-7 h 164 c 3.8642,0.004 6.99567,3.1358 7,7 V 281.08702 c -0.005,3.86414 -3.13586,6.99548 -7,7 z m -164,-235.000003 c -2.76007,0.003 -4.99677,2.23993 -5,5 V 281.08702 c 0.003,2.76007 2.23993,4.99677 5,5 h 164 c 2.76007,-0.003 4.99677,-2.23993 5,-5 V 58.087017 c -0.003,-2.76007 -2.23993,-4.99677 -5,-5 z"
     fill="#3f3d56"
     id="path13-6"
     style="opacity:0.85;fill:#e6e6e6" /><g
     opacity="0.38"
     id="g25"
     transform="translate(-53.119025,-64.535123)"><path
       d="m 290.66724,241.59211 -11.88,-49.44 -5.10999,-14.38 c -0.005,-0.005 -0.009,-0.0124 -0.01,-0.02 -0.83197,-2.34897 -2.57208,-4.26562 -4.83002,-5.32001 -2.25897,-1.08163 -4.85925,-1.20425 -7.20999,-0.34 -0.20071,0.0696 -0.39764,0.14975 -0.59,0.23999 -0.41003,0.18747 -0.80753,0.40128 -1.19,0.64001 -2.20493,1.39001 -3.73615,3.63071 -4.23001,6.19 l -0.89999,4.72 -0.38,2.01001 14.03003,49.04001 v 0.02 l 4.88,17.07999 2.26001,7.88 v 0.01 l 2.62,9.17001 0.06,0.19 6.28998,-0.42001 h 0.01 l 0.95001,-0.07 7.20001,-0.48001 1.03998,-0.07 -3.01001,-26.64999 z"
       fill="#2f2e41"
       id="path18-3" /><path
       d="m 285.2207,279.49711 c -2.50269,-2.04874 -2.87067,-5.73837 -0.82196,-8.24106 0.21844,-0.26685 0.46008,-0.51389 0.72198,-0.73822 l -13.23828,-34.60919 10.57983,2.24091 11.23297,33.28967 c 1.94733,2.60431 1.41479,6.29413 -1.18951,8.24149 -2.17908,1.62943 -5.1908,1.5535 -7.28503,-0.18359 z"
       fill="#ffb8b8"
       id="path17-0" /><path
       d="m 242.43661,159.04686 26.46164,53.5145 16.74023,56.90335 c -35.26788,6.87714 -79.52014,21.58875 -82.70544,0.48938 1.96277,-58.82568 8.14633,-77.58966 20.91101,-103.09192 z"
       fill="#2f2e41"
       id="path19-8" /><path
       d="m 277.81726,317.62214 h -21.73001 l -8.81,-29.76999 -6.20001,29.38998 c -0.02,0.13 -0.03,0.25 -0.05,0.38 h -23.16 c 0.75,-9.20001 2.12,-25.20001 2.76999,-27.47 0.92001,-3.22 0,-3.22 -1.84,-5.06 -0.41,-0.41 -0.54999,-2.04999 -0.51001,-4.34 0.10999,-7.89001 2.26001,-23.51999 2.26001,-23.51999 l 2.54999,-4.72 0.88,-1.64001 45.41998,-1.60001 0.39001,-0.01 0.84003,3.66 1.03003,4.51001 1.81,7.91 1.66998,6.31 0.09,0.32001 v 1.87 c -0.28442,0.65152 -0.41449,1.35995 -0.38,2.07001 -6e-5,0.63998 1.43994,20.58002 2.96997,41.70999 z"
       fill="#2f2e41"
       id="path20" /><path
       d="m 239.33566,166.98292 3.11841,-7.46091 9.65152,0.16946 10.064,14.23587 10.56314,44.42258 c 0,0 3.79401,32.45065 0,34.16373 -3.79401,1.71308 -49.73508,0.80151 -49.73508,0.80151 2.12711,-17.52463 3.7124,-35.35199 5.38318,-46.00183 5.52185,-35.19739 8.12796,-27.79028 10.95483,-40.33041 z"
       fill="#d8d1d1"
       id="path21" /><path
       d="m 252.10559,159.69148 c 0,0 20.79034,12.01813 21.60358,18.29156 0.81324,6.27343 3.53577,83.0571 3.53577,83.0571 l -7.35217,-4.75076 -2.0094,-27.98499 c 1.40137,-24.86685 -2.01871,-43.40192 -8.97275,-57.29605 l -6.80502,-11.31686 z"
       fill="#2f2e41"
       id="path22" /><circle
       cx="247.19768"
       cy="142.02649"
       r="14.16937"
       transform="rotate(-80.78252,247.19768,142.02649)"
       fill="#ffb8b8"
       id="circle22" /><path
       d="m 229.73886,141.18507 c 0.63272,2.87088 1.77405,5.60538 3.37006,8.07419 0.42368,0.8418 1.05667,1.56052 1.83823,2.08713 0.81647,0.52396 1.89072,0.38965 2.5531,-0.31915 l 0.3447,-0.28085 c -0.67599,-0.41653 -1.27963,-0.9404 -1.7872,-1.55099 -0.50983,-0.6217 -0.68808,-1.45129 -0.4787,-2.22757 0.25439,-0.78418 1.08334,-1.22684 1.87653,-1.00211 0.8298,0.32553 1.33401,1.52548 2.20206,1.34039 0.70212,-0.1532 0.84891,-1.07867 0.84891,-1.8063 -0.0255,-3.80414 1.81271,-9.2103 3.23605,-9.04434 1.43796,0.0786 2.87784,-0.11411 4.24451,-0.56808 1.36841,-0.45474 2.81216,-0.63904 4.25092,-0.54257 0.10211,0.0128 0.20425,0.0319 0.31274,0.0511 0.23065,-0.72275 0.54782,-1.41498 0.94464,-2.06161 -0.0447,0.78055 -0.006,1.56366 0.1149,2.33606 1.1449,0.47186 2.32785,0.84555 3.53607,1.117 1.31485,0.18512 4.20621,4.11688 4.34027,3.71475 0.23065,-0.72275 0.54782,-1.41498 0.94464,-2.06161 -0.0447,0.78055 -0.006,1.56366 0.1149,2.33606 0.006,0.0319 0.006,0.0575 0.0128,0.0894 0.63828,-0.84891 1.02762,-1.88293 0.81061,-1.09146 2.13821,-4.8381 1.30847,-8.30392 -2.05527,-12.38251 -0.65558,-0.87698 -1.52304,-1.57315 -2.52115,-2.02335 -1.01657,-0.44653 -2.19244,-0.33038 -3.10199,0.3064 -2.79385,-2.56146 -6.75687,-3.40686 -10.35278,-2.20844 -3.50412,1.21912 -6.20401,1.93399 -6.74017,5.61047 -2.98386,-0.32629 -5.89026,1.08841 -7.47421,3.63812 -1.51031,2.54871 -2.00485,5.57291 -1.3851,8.46994 z"
       fill="#2f2e41"
       id="path23" /><path
       d="m 190.03381,276.00099 c -1.20316,-3.00217 0.25528,-6.41125 3.25745,-7.61441 0.32013,-0.1283 0.65097,-0.22806 0.98865,-0.29813 l 5.10889,-36.70081 8.18457,7.06876 -6.22836,34.57733 c 0.44858,3.22076 -1.79874,6.19534 -5.0195,6.64392 -2.69479,0.37531 -5.29581,-1.14465 -6.29166,-3.67667 h -3e-5 z"
       fill="#ffb8b8"
       id="path24" /><path
       d="m 235.12726,178.03215 -0.39001,-3.56 c -0.36758,-3.28781 -2.43234,-6.14203 -5.44,-7.51999 -1.14224,-0.52991 -2.38123,-0.81924 -3.64001,-0.85001 h -0.01 c -3.78793,-0.0884 -7.25974,2.10269 -8.81,5.56 l -6.23999,13.95001 -15.75,48.35001 -5.09,26.30005 5.5,0.81 7.97,1.17001 0.06,0.01 1.82999,0.26999 25.57001,-68.44 0.01,-0.02 4.78,-12.79001 -0.34998,-3.24008 z"
       fill="#2f2e41"
       id="path25" /></g><path
     d="M 556.97256,37.850249 H 91.679572 c -0.99774,-0.0213 -1.78931,-0.84746 -1.76797,-1.84521 0.0207,-0.96771 0.80026,-1.74727 1.76797,-1.76796 H 556.97257 c 0.99774,0.0213 1.78931,0.84746 1.76794,1.84521 -0.0207,0.96771 -0.80023,1.74727 -1.76794,1.76796 z"
     fill="#cacaca"
     id="path14-9" /><path
     d="m 0,509.7 c 0,0.66 0.53,1.19 1.19,1.19 h 729.29 c 0.66,0 1.19,-0.53 1.19,-1.19 0,-0.66 -0.53,-1.19 -1.19,-1.19 H 1.19 C 0.53,508.51 0,509.04 0,509.7 Z"
     fill="#3f3d58"
     id="path1" /><polygon
     points="466.22,50.67 442.98,50.67 440.61,79.12 466.22,87.54 "
     fill="#f8a8ab"
     id="polygon1" /><circle
     cx="463.04999"
     cy="35.349998"
     r="25.52"
     fill="#f8a8ab"
     id="circle1" /><path
     d="m 456.55,37.35 3.52,4.27 6.36,-11.14 c 0,0 8.12,0.42 8.12,-5.61 0,-6.03 7.45,-6.2 7.45,-6.2 0,0 10.55,-18.42 -11.3,-13.57 0,0 -15.16,-10.38 -22.69,-1.51 0,0 -23.11,11.64 -16.5,31.9 l 10.99,20.89 2.49,-4.73 c 0,0 -1.51,-19.85 11.56,-14.32 z"
     fill="#2f2e43"
     id="path2" /><rect
     x="432.92999"
     y="461.78"
     width="20.940001"
     height="29.709999"
     fill="#f8a8ab"
     id="rect2" /><path
     d="m 451.55,508.51 c -3.58,0.32 -21.5,1.74 -22.4,-2.37 -0.82,-3.77 0.39,-7.71 0.56,-8.25 1.72,-17.14 2.36,-17.33 2.75,-17.44 0.61,-0.18 2.39,0.67 5.28,2.53 l 0.18,0.12 0.04,0.21 c 0.05,0.27 1.33,6.56 7.4,5.59 4.16,-0.66 5.51,-1.58 5.94,-2.03 -0.35,-0.16 -0.79,-0.44 -1.1,-0.92 -0.45,-0.7 -0.53,-1.6 -0.23,-2.68 0.78,-2.85 3.12,-7.06 3.22,-7.23 l 0.27,-0.48 23.8,16.06 14.7,4.2 c 1.11,0.32 2,1.11 2.45,2.17 v 0 c 0.62,1.48 0.24,3.2 -0.96,4.28 -2.67,2.4 -7.97,6.51 -13.54,7.02 -1.48,0.14 -3.44,0.19 -5.64,0.19 -9.19,0 -22.61,-0.95 -22.71,-0.97 v 0 z"
     fill="#2f2e43"
     id="path3" /><path
     d="m 480.61,205.64 -54.93,-2.81 c 0,0 -8.42,31.92 2.22,65.18 l 1.28,200.29 h 31.04 l 29.26,-206.61 z"
     fill="#2f2e43"
     id="path4" /><path
     d="m 471.35,72.03 -30.15,-16 c 0,0 -32.49,47.48 -28,73.2 4.5,25.72 12.48,73.6 12.48,73.6 l 66.51,2.81 -11.61,-94.29 z"
     fill="#e2e3e4"
     id="path5" /><rect
     x="447.82999"
     y="461.78"
     width="20.940001"
     height="29.709999"
     fill="#f8a8ab"
     id="rect5" /><path
     d="m 466.45,508.51 c -3.58,0.32 -21.5,1.74 -22.4,-2.37 -0.82,-3.77 0.39,-7.71 0.56,-8.25 1.72,-17.14 2.36,-17.33 2.75,-17.44 0.61,-0.18 2.39,0.67 5.28,2.53 l 0.18,0.12 0.04,0.21 c 0.05,0.27 1.33,6.56 7.4,5.59 4.16,-0.66 5.51,-1.58 5.94,-2.03 -0.35,-0.16 -0.79,-0.44 -1.1,-0.92 -0.45,-0.7 -0.53,-1.6 -0.23,-2.68 0.78,-2.85 3.12,-7.06 3.22,-7.23 l 0.27,-0.48 23.8,16.06 14.7,4.2 c 1.11,0.32 2,1.11 2.45,2.17 v 0 c 0.62,1.48 0.24,3.2 -0.96,4.28 -2.67,2.4 -7.97,6.51 -13.54,7.02 -1.48,0.14 -3.44,0.19 -5.64,0.19 -9.19,0 -22.61,-0.95 -22.71,-0.97 v 0 z"
     fill="#2f2e43"
     id="path6" /><path
     d="m 492.19,205.64 -66.51,-2.81 c 0,0 -8.42,31.92 2.22,65.18 l 12.86,200.29 h 31.04 l 29.26,-206.61 z"
     fill="#2f2e43"
     id="path7" /><path
     d="m 485.25,336.46 c -4.65,0 -9.72,-1.14 -14.73,-2.26 -3.71,-0.83 -6.98,-1.04 -9.6,-1.2 -3.98,-0.25 -7.13,-0.45 -8.88,-2.78 -1.73,-2.3 -1.73,-6.21 0,-13.92 2.3,-10.24 7.42,-26.6 13.68,-40.06 8.09,-17.36 15.86,-25.35 23.11,-23.72 9.71,2.18 13.58,18.39 15.03,27.85 2.02,13.21 1.84,28.91 -0.44,39.07 v 0 c -3.02,13.45 -9.95,17.01 -18.18,17.01 h 0.01 z m 1.77,-81.13 c -5.33,0 -11.87,7.78 -18.57,22.18 -6.17,13.25 -11.21,29.36 -13.48,39.45 -1.45,6.48 -1.61,10.01 -0.53,11.46 0.92,1.22 3.33,1.38 6.66,1.58 2.73,0.17 6.13,0.38 10.07,1.27 15.66,3.51 25.45,4.79 29.32,-12.48 4.15,-18.5 0.99,-60.35 -12.32,-63.34 -0.38,-0.09 -0.77,-0.13 -1.16,-0.13 h 0.01 z"
     fill="#dfdfe0"
     id="path8" /><polygon
     points="376.26,451.13 389.76,313.42 403.34,314.11 543.07,321.22 548.58,460.81 399.43,461.79 "
     fill="#d8d1d1"
     id="polygon8" /><g
     id="g1"
     transform="matrix(0.36757995,0,0,0.35343618,409.71688,322.22539)"
     inkscape:transform-center-x="15.432246"
     inkscape:transform-center-y="15.432246"
     style="display:inline"><path
       d="M 0,0 C 3.0805075,1.8171039 6.1924757,3.5778265 9.3022461,5.3442383 20.000514,11.422302 30.630642,17.615125 41.25293,23.824707 c 5.237344,3.060808 10.48564,6.102258 15.738281,9.136719 7.345177,4.246744 14.676461,8.515997 21.976562,12.839844 2.732673,1.618322 5.47792,3.21162 8.234375,4.789062 11.655241,6.719999 18.799812,12.754384 23.851562,25.621094 0.79785,3.989701 1.12822,7.777706 1.14044,11.841827 0.006,1.143645 0.0114,2.287291 0.0173,3.465592 0.001,1.240627 0.002,2.481254 0.003,3.759475 0.005,1.31784 0.01,2.63568 0.0151,3.993454 0.0131,3.605706 0.0196,7.211396 0.024,10.817126 0.003,2.25782 0.007,4.51564 0.0115,6.77346 0.0137,7.07893 0.0233,14.15784 0.0272,21.23678 0.004,8.14387 0.022,16.28757 0.051,24.43138 0.0217,6.31279 0.0317,12.62553 0.033,18.93835 0.001,3.76185 0.007,7.52354 0.0248,11.28535 0.0166,3.54431 0.0186,7.08834 0.01,10.63268 -0.001,1.90133 0.0125,3.80266 0.0267,5.70394 -0.0528,11.00436 -1.24427,21.15968 -8.71249,29.6909 -4.988879,4.53667 -10.705825,7.84482 -16.530766,11.19726 -2.049085,1.17945 -4.083198,2.38081 -6.113769,3.5918 -4.326861,2.57379 -8.676443,5.10776 -13.027344,7.64063 -1.937598,1.13004 -3.875092,2.26026 -5.8125,3.39062 -3.104835,1.81138 -6.20987,3.62241 -9.315674,5.43213 -5.863203,3.41722 -11.716273,6.85072 -17.559326,10.30225 -8.075918,4.76511 -16.215008,9.41759 -24.367188,14.05078 -2.9572258,1.68236 -5.902476,3.38052 -8.8281246,5.11718 -3.3411798,1.96742 -6.7089522,3.85843 -10.1171875,5.70704 -0.6002197,0.33435 -1.2004394,0.6687 -1.8188476,1.01318 -11.4721173,6.25671 -23.3875153,8.6505 -36.3061523,5.4624 -4.929449,-1.57656 -9.392125,-3.91735 -13.875,-6.47558 -0.762481,-0.43426 -1.524961,-0.86851 -2.310547,-1.31592 -5.104648,-2.94618 -10.131712,-6.00994 -15.142578,-9.11231 -4.078212,-2.51682 -8.186685,-4.98263 -12.296875,-7.44677 -0.811465,-0.48727 -1.62293,-0.97454 -2.458984,-1.47657 -13.177337,-7.89614 -26.420647,-15.69414 -39.853517,-23.14843 -6.72064,-3.74929 -13.34074,-7.66226 -19.9375,-11.625 -0.96817,-0.57428 -1.93633,-1.14856 -2.93384,-1.74024 -11.18452,-6.7718 -19.95651,-14.0442 -23.71362,-27.02612 -2.33151,-9.86623 -1.74087,-20.08692 -1.68066,-30.15943 0.003,-2.2627 0.005,-4.52542 0.006,-6.78813 0.005,-4.74151 0.019,-9.48285 0.0412,-14.22432 0.028,-5.98157 0.0391,-11.96301 0.0438,-17.94464 0.0175,-20.42803 0.0588,-40.86235 0.56553,-61.285093 0.0322,-1.795742 0.0322,-1.795742 0.0651,-3.627762 0.34207,-10.894598 2.77836,-19.250876 10.60675,-27.079269 9.02644,-7.342207 19.43292,-12.862207 29.51953,-18.588379 4.04749,-2.303401 8.0763,-4.638883 12.10547,-6.974121 0.79277,-0.459068 1.58555,-0.918135 2.40234,-1.391114 17.97872,-10.417468 35.799498,-21.095986 53.589848,-31.8315425 3.453957,-2.08351839 6.91526,-4.1540243 10.382813,-6.2148437 0.853359,-0.5104688 1.706719,-1.0209375 2.585937,-1.546875 2.110138,-1.2243118 4.229857,-2.3674086 6.414063,-3.453125 0.630352,-0.3183985 1.260703,-0.6367969 1.910156,-0.9648438 C -32.365136,-17.141869 -15.137456,-9.0181415 0,0 Z m -56.008789,31.273926 c -0.770215,0.433769 -1.54043,0.867539 -2.333984,1.314453 -0.726387,0.423457 -1.452774,0.846914 -2.201172,1.283203 -0.654925,0.377776 -1.309849,0.755552 -1.984619,1.144775 -0.701774,0.591559 -0.701774,0.591559 -1.417725,1.195069 0,0.99 0,1.98 0,3 2.017973,1.4667 3.961408,2.695177 6.121094,3.921875 0.963216,0.564904 0.963216,0.564904 1.945892,1.14122 2.11774,1.239158 4.24405,2.462789 6.370514,3.686905 1.473607,0.859221 2.946503,1.719665 4.418701,2.581299 2.976879,1.741491 5.956378,3.478362 8.937744,5.212158 5.706804,3.325182 11.363675,6.731377 17.018555,10.144043 11.2289217,6.752881 22.4989031,13.435264 33.775589,20.107986 6.462727,3.824957 12.919305,7.660256 19.375931,11.495499 2.021673,1.200519 4.043772,2.400315 6.066009,3.599879 5.995968,3.55731 11.989866,7.11782 17.971863,10.69858 2.525379,1.51116 5.052639,3.01916 7.580139,4.52677 1.187475,0.70951 2.374014,1.42059 3.55957,2.1333 1.624937,0.97672 3.253297,1.94775 4.881836,2.91845 0.917007,0.54939 1.834014,1.09877 2.778809,1.6648 2.077396,1.32359 2.077396,1.32359 4.197754,1.16724 0.07463,-4.28667 0.128825,-8.57299 0.164795,-12.86011 0.01501,-1.4558 0.03542,-2.91155 0.06152,-4.36719 0.03674,-2.10273 0.05349,-4.20486 0.06665,-6.30786 0.01571,-1.262073 0.03142,-2.524146 0.04761,-3.824463 -0.627809,-6.71058 -3.192759,-11.201819 -8.340576,-15.640381 -2.434384,-1.767725 -2.434384,-1.767725 -5.1875,-3.375 C 67.327786,77.511743 66.78936,77.187061 66.234619,76.852539 57.849204,71.836733 49.349328,67.009485 40.87793,62.141113 34.587719,58.524131 28.317603,54.873746 22.053711,51.211426 c -3.999312,-2.334514 -7.999545,-4.667446 -12,-7 C 8.9380273,43.560449 7.8223437,42.909473 6.6728516,42.23877 3.2192918,40.224781 -0.2383918,38.217958 -3.6962891,36.211426 -4.7430078,35.60041 -5.7897266,34.989395 -6.8681641,34.359863 -26.622419,22.920537 -35.98511,19.568585 -56.008789,31.273926 Z m -48.437501,10.0625 c -0.72381,0.407263 -1.44762,0.814526 -2.19336,1.234131 -5.26248,2.987527 -10.36598,6.141237 -15.30664,9.640869 3.96021,3.29891 8.10343,6.106167 12.4375,8.875 1.081,0.693797 1.081,0.693797 2.18384,1.401611 1.58504,1.016321 3.17094,2.031313 4.75757,3.045166 2.857513,1.829598 5.708047,3.669814 8.558591,5.510254 1.999772,1.28551 3.99977,2.570671 6,3.855469 0.965427,0.624389 1.930854,1.248779 2.925537,1.89209 1.349769,0.863591 1.349769,0.863591 2.726807,1.744629 0.803005,0.516511 1.60601,1.033022 2.433349,1.565185 1.889514,1.273865 1.889514,1.273865 3.976807,1.110596 0,0.66 0,1.32 0,2 0.778594,0.426679 1.557187,0.853359 2.359375,1.292969 9.017215,5.038421 17.657834,10.546988 26.292969,16.210935 5.440116,3.56698 10.919278,7.0704 16.410156,10.5586 0.924499,0.58749 1.848999,1.17498 2.801514,1.78027 6.574552,4.17377 13.160752,8.32895 19.7482906,12.48218 7.65914292,4.83497 15.285209,9.72129 22.9116214,14.60766 8.68162,5.56185 17.376195,11.10302 26.077636,16.63379 3.643421,2.31596 7.283775,4.63663 10.921875,6.96094 9.295274,5.9354 18.610727,11.8366 27.976563,17.66016 0.86633,0.54084 1.732661,1.08168 2.625244,1.63891 4.209744,2.60762 8.396214,5.05791 12.874756,7.17359 0.358557,-4.46917 0.639515,-8.93654 0.862305,-13.41407 0.096,-1.80288 0.207208,-3.60499 0.330078,-5.40625 0.19074,-2.93446 0.316832,-5.8664 0.432617,-8.80468 0.07154,-0.93538 0.143086,-1.87076 0.216797,-2.83448 0.147278,-5.06395 0.147278,-5.06395 -2.404053,-9.23437 -2.397713,-1.64132 -4.859251,-2.96592 -7.437744,-4.30615 -2.177177,-1.28753 -4.350069,-2.58233 -6.519531,-3.88282 -1.799561,-1.0533 -3.602716,-2.10026 -5.406159,-3.14691 -3.247137,-1.88493 -6.488599,-3.77958 -9.73056,-5.6734 -0.641535,-0.3745 -1.28307,-0.749 -1.944046,-1.13486 -5.09297,-2.97567 -10.1609,-5.9911 -15.212204,-9.03701 -8.601941,-5.185 -17.235833,-10.31489 -25.875,-15.4375 -9.61912,-5.7045 -19.2283123,-11.424417 -28.8125001,-17.187504 -9.4801159,-5.700467 -18.9851639,-11.357778 -28.4999999,-17 -9.763553,-5.790112 -19.518245,-11.594035 -29.25,-17.4375 -0.999668,-0.600139 -1.999336,-1.200279 -3.029297,-1.818604 -4.894671,-2.94028 -9.785886,-5.886193 -14.673828,-8.837646 -0.936826,-0.56469 -1.873652,-1.12938 -2.838867,-1.711182 -1.762219,-1.062383 -3.523347,-2.126579 -5.283203,-3.192871 -1.153872,-0.695248 -1.153872,-0.695248 -2.331055,-1.404541 -0.673535,-0.407263 -1.34707,-0.814526 -2.041016,-1.234131 -3.546694,-1.97243 -6.886555,1.475708 -10.052735,3.261475 z m -21.5,28.875 c -2.55148,1.506041 -5.09023,3.028765 -7.625,4.5625 -0.71285,0.418301 -1.4257,0.836601 -2.16016,1.267578 -5.06376,3.089358 -10.84789,6.965504 -12.77174,12.882812 -0.56137,2.897586 -0.60778,5.65925 -0.64842,8.611573 -0.0199,1.288181 -0.0399,2.576361 -0.0604,3.903581 -0.017,1.41487 -0.0339,2.82974 -0.0506,4.24461 -0.0206,1.47986 -0.0416,2.95971 -0.063,4.43956 -0.044,3.12469 -0.0849,6.2494 -0.1233,9.37416 -0.0479,3.88995 -0.10184,7.77979 -0.15794,11.66963 -0.13253,9.23161 -0.235,18.46328 -0.31757,27.69546 -0.0221,2.37668 -0.047,4.75332 -0.0723,7.12997 -0.0404,3.92803 -0.0685,7.85599 -0.0883,11.78418 -0.009,1.46116 -0.0211,2.92231 -0.0373,4.38341 -0.98803,18.78943 -0.98803,18.78943 5.31275,35.51973 10.50397,8.63219 23.13469,14.74619 34.92238,21.4393 12.847744,7.29611 25.566751,14.80013 38.175276,22.5021 0.62306,0.38015 1.246121,0.7603 1.888061,1.15196 3.0578,1.86608 6.112858,3.73635 9.16272,5.61538 13.365555,8.91027 13.365555,8.91027 28.714844,11.82251 6.0552,-1.46588 11.558427,-4.09217 17,-7.0625 0.731462,-0.39357 1.462925,-0.78714 2.216553,-1.19263 7.223543,-3.92007 14.2891093,-8.09713 21.3488766,-12.30249 4.6911444,-2.77931 9.4092724,-5.51252 14.1220704,-8.25488 4.105207,-2.39406 8.209059,-4.79043 12.3125,-7.1875 0.961963,-0.56155 1.923926,-1.1231 2.915039,-1.70166 9.967752,-5.82623 19.896856,-11.7145 29.709961,-17.79834 0.78802,-0.48034 1.57604,-0.96068 2.387939,-1.45557 6.2562,-3.92332 9.502984,-7.41846 11.787842,-14.54053 0.66318,-3.81202 0.605465,-5.86143 -0.800781,-9.5039 -4.858747,-4.54101 -11.266572,-7.34346 -17.100586,-10.41846 -4.700487,-2.56397 -9.161191,-5.4792 -13.649414,-8.39404 -1.844086,-1.1825 -3.689153,-2.36347 -5.535156,-3.54297 -0.932154,-0.59603 -1.864307,-1.19206 -2.824707,-1.80616 -5.006891,-3.18481 -10.042339,-6.32373 -15.077637,-9.46337 -7.116795,-4.43864 -14.225544,-8.88887 -21.3125001,-13.375 -10.1141035,-6.40007 -20.2662999,-12.73876 -30.4194339,-19.07666 -5.028031,-3.13924 -10.054219,-6.28142 -15.080566,-9.42334 -1.999991,-1.25002 -3.999991,-2.50002 -6,-3.75 -4,-2.5 -8,-5 -12,-7.5 -0.990403,-0.619 -1.980806,-1.23799 -3.001221,-1.87574 -1.995967,-1.2475 -3.991898,-2.49506 -5.987793,-3.74267 -5.061395,-3.16374 -10.12346,-6.32639 -15.186767,-9.487063 -2.045616,-1.277275 -4.09119,-2.554618 -6.136719,-3.832031 -0.990564,-0.618509 -1.981128,-1.237017 -3.001709,-1.874268 -7.197696,-4.498188 -14.378092,-9.023206 -21.536622,-13.583496 -4.32034,-2.741913 -8.68646,-5.350692 -13.14917,-7.854736 z"
       fill="#fdfdfc"
       transform="translate(210.94629,43.788574)"
       id="path1-0" /><path
       d="m 0,0 c 2.0544434,1.0847168 2.0544434,1.0847168 4.0898437,2.4492188 0.7742432,0.51208 1.5484864,1.0241601 2.3461915,1.5517578 1.238225,0.8348291 1.238225,0.8348291 2.5014648,1.6865234 1.776617,1.1768797 3.55399,2.3526177 5.332031,3.5273438 1.393396,0.9240162 1.393396,0.9240162 2.814942,1.8666992 4.979285,3.276438 10.009471,6.47231 15.040527,9.668457 0.953826,0.608035 1.907651,1.216069 2.890381,1.842529 0.884377,0.562434 1.768755,1.124868 2.679931,1.704346 0.783912,0.498545 1.567823,0.99709 2.375489,1.510742 C 41.978928,27.026894 41.978928,27.026894 44,28 c 0,0.66 0,1.32 0,2 0.835312,0.232031 1.670625,0.464062 2.53125,0.703125 4.093217,1.530347 7.35782,3.621366 10.96875,6.046875 1.516293,0.99966 3.033254,1.998309 4.550781,2.996094 0.802603,0.529643 1.605205,1.059287 2.432129,1.60498 4.373219,2.864862 8.790021,5.660874 13.20459,8.461426 1.875038,1.191347 3.750037,2.382754 5.625,3.574219 0.938438,0.59603 1.876875,1.19206 2.84375,1.806152 2.824051,1.794611 5.646666,3.591457 8.46875,5.38916 8.55216,5.447526 17.1093,10.886527 25.6875,16.292969 8.4287,5.313785 16.82188,10.682285 25.21143,16.057617 9.56986,6.130901 19.15664,12.234903 28.74804,18.332033 2.81021,1.78763 5.61891,3.5776 8.42725,5.36816 9.18768,5.85607 18.37941,11.70266 27.64404,17.43653 4.55233,2.82625 4.55233,2.82625 5.65674,3.93066 0.31581,4.14617 0.357,8.2963 0.40503,12.45337 0.0215,1.39381 0.0554,2.78749 0.10254,4.18066 0.47485,14.17301 0.47485,14.17301 -4.73535,19.82373 -2.86504,2.49324 -5.79245,4.52863 -9.08472,6.41724 -0.70165,0.42015 -1.40331,0.84031 -2.12622,1.27319 -2.17835,1.29945 -4.36879,2.57642 -6.56128,3.85181 -1.26905,0.75252 -2.53731,1.50638 -3.80469,2.26172 -3.48511,2.06983 -6.98415,4.11511 -10.48584,6.15674 -5.10094,2.97746 -10.19432,5.96788 -15.28921,8.95569 -1.9194,1.12535 -3.83909,2.25019 -5.75888,3.37487 -5.89759,3.45531 -11.79258,6.91482 -17.67725,10.39209 -49.486284,29.21561 -49.486284,29.21561 -61.597411,26.21045 -4.929926,-1.66947 -9.398146,-3.83056 -13.875,-6.47656 -1.570924,-0.92825 -1.570924,-0.92825 -3.173584,-1.87524 -6.348231,-3.803 -12.666466,-7.65455 -18.978272,-11.51758 -7.605725,-4.65216 -15.26557,-9.18217 -23.020019,-13.58203 C 15.347221,207.05968 10.393401,204.1539 5.4375,201.25 c -6.10280043,-3.57417 -12.2107881,-7.13502 -18.371094,-10.60938 -0.938357,-0.53012 -1.876714,-1.06025 -2.843506,-1.60644 -1.754587,-0.9886 -3.51173,-1.97268 -5.271972,-2.95117 -18.405998,-10.37763 -18.405998,-10.37763 -21.858094,-19.47321 -1.859945,-6.67718 -2.509011,-12.74312 -2.420959,-19.65668 0.0013,-1.0577 0.0027,-2.1154 0.004,-3.20515 0.009,-3.49959 0.04061,-6.99853 0.0741,-10.49797 0.01475,-2.47517 0.02873,-4.95035 0.04199,-7.42554 0.03274,-5.36008 0.07745,-10.71991 0.129883,-16.07983 0.05916,-6.07842 0.09857,-12.156703 0.125,-18.235353 0.03183,-7.302185 0.07865,-14.604087 0.143452,-21.906057 0.0351,-3.968378 0.06457,-7.93659 0.07957,-11.9051 0.01496,-3.759847 0.04941,-7.519045 0.09816,-11.278601 0.01483,-1.386673 0.023,-2.773437 0.0239,-4.16019 0.01042,-8.414015 0.148391,-15.304235 6.033889,-21.843573 4.760005,-4.645346 10.922636,-7.761917 16.636658,-11.087631 2.587483,-1.5102139 5.120263,-3.0750165 7.625,-4.71875 0.869875,-0.5638843 0.869875,-0.5638843 1.757324,-1.1391602 C -10.96593,2.4342576 -9.3850451,1.3854727 -7.8047105,0.3359375 -4.4709916,-1.2519789 -3.4734975,-0.9915358 0,0 Z m -6,17 c -2.5514816,1.506041 -5.090232,3.028765 -7.625,4.5625 -0.712852,0.418301 -1.425703,0.836602 -2.160156,1.267578 -5.063761,3.089358 -10.847891,6.965504 -12.771744,12.882813 -0.561372,2.897585 -0.607777,5.65925 -0.648422,8.611572 -0.01994,1.288181 -0.03989,2.576363 -0.06044,3.90358 -0.01704,1.414869 -0.03392,2.82974 -0.05064,4.244613 -0.02065,1.479858 -0.04165,2.959712 -0.06297,4.43956 -0.04403,3.124689 -0.08488,6.249398 -0.123307,9.374161 -0.04793,3.889951 -0.101839,7.779786 -0.157938,11.669626 -0.132526,9.231607 -0.234992,18.46328 -0.317564,27.695467 -0.02207,2.37668 -0.04701,4.75331 -0.07229,7.12996 -0.04046,3.92803 -0.06853,7.85599 -0.0883,11.78418 -0.0088,1.46116 -0.02108,2.92231 -0.03725,4.38341 -0.988035,18.78944 -0.988035,18.78944 5.312746,35.51973 10.503969,8.63219 23.1346913,14.7462 34.922378,21.4393 12.847747,7.29612 25.566753,14.80013 38.175278,22.50211 0.62306,0.38014 1.246121,0.76029 1.888062,1.15196 3.057799,1.86608 6.112857,3.73635 9.162719,5.61537 C 72.650711,224.08777 72.650711,224.08777 88,227 c 6.0552,-1.46588 11.558427,-4.09217 17,-7.0625 0.73146,-0.39357 1.46292,-0.78713 2.21655,-1.19263 7.22355,-3.92007 14.28911,-8.09712 21.34888,-12.30249 4.69114,-2.77931 9.40927,-5.51251 14.12207,-8.25488 4.10521,-2.39405 8.20906,-4.79042 12.3125,-7.1875 0.96196,-0.56155 1.92393,-1.1231 2.91504,-1.70166 9.96775,-5.82622 19.89685,-11.7145 29.70996,-17.79834 0.78802,-0.48034 1.57604,-0.96067 2.38794,-1.45557 6.2562,-3.92332 9.50298,-7.41845 11.78784,-14.54052 0.66318,-3.81202 0.60547,-5.86143 -0.80078,-9.50391 -4.85875,-4.54101 -11.26657,-7.34346 -17.10059,-10.41846 -4.70048,-2.56397 -9.16119,-5.4792 -13.64941,-8.39404 -1.84409,-1.1825 -3.68915,-2.36347 -5.53516,-3.54297 -0.93215,-0.59603 -1.8643,-1.19206 -2.8247,-1.80615 C 156.88325,118.65356 151.8478,115.51464 146.8125,112.375 139.6957,107.93637 132.58696,103.48613 125.5,99 115.3859,92.599939 105.2337,86.26124 95.080566,79.92334 90.052535,76.784108 85.026347,73.641928 80,70.5 c -1.999991,-1.250015 -3.999991,-2.500015 -6,-3.75 -4,-2.5 -8,-5 -12,-7.5 -0.990403,-0.618992 -1.980806,-1.237983 -3.001221,-1.875732 -1.995967,-1.2475 -3.991898,-2.495059 -5.987793,-3.742676 C 47.949591,50.467858 42.887526,47.305204 37.824219,44.144531 35.778603,42.867257 33.733029,41.589914 31.6875,40.3125 30.696936,39.693992 29.706372,39.075483 28.685791,38.438232 21.488095,33.940044 14.307702,29.415026 7.1491699,24.854736 2.8288318,22.112823 -1.5372881,19.504045 -6,17 Z"
       fill="#bd9323"
       transform="translate(91,97)"
       id="path2-0" /><path
       d="m 0,0 c 2.4455994,1.3383267 4.8440703,2.73627 7.2370605,4.1665039 0.8967847,0.524165 1.7935694,1.0483301 2.7175293,1.5883789 1.9113552,1.1183197 3.8200772,2.2411494 5.7263182,3.3681641 2.922092,1.7256061 5.85266,3.4357761 8.786621,5.1411131 6.05414,3.519779 12.099651,7.054195 18.144532,10.589844 3.957657,2.313658 7.916028,4.626091 11.875,6.9375 0.976626,0.57041 1.953251,1.14082 2.959472,1.728516 6.46806,3.773298 12.952513,7.517199 19.44458,11.249023 22.542009,12.962341 22.542009,12.962341 28.720947,17.084961 0.84949,0.56332 1.69898,1.126641 2.57422,1.707031 4.307,4.07119 6.18651,7.9129 6.77385,13.755203 0.11475,4.289352 0.10233,8.560621 0.0426,12.850266 -0.007,1.580396 -0.0132,3.160802 -0.0172,4.741211 -0.0152,4.136435 -0.0544,8.272295 -0.0988,12.408505 -0.0411,4.22997 -0.0592,8.46002 -0.0793,12.69013 -0.0428,8.28281 -0.11092,16.56516 -0.19531,24.84765 -14.778264,-8.43017 -14.778264,-8.43017 -21.183593,-12.18359 -0.588301,-0.34467 -1.176602,-0.68934 -1.78273,-1.04445 -1.218885,-0.71438 -2.437551,-1.42913 -3.655991,-2.14427 -1.810769,-1.06259 -3.622499,-2.12354 -5.434326,-3.18433 -6.781242,-3.9744 -13.537286,-7.98842 -20.273209,-12.03914 C 55.949138,110.4509 49.59371,106.68168 43.236816,102.91431 32.845301,96.755009 22.464383,90.57903 12.112061,84.354004 c -9.480114,-5.700471 -18.9851645,-11.357778 -28.5,-17 -12.729024,-7.548734 -25.432035,-15.139251 -38.114747,-22.765625 -4.814019,-2.893789 -9.631017,-5.782611 -14.447753,-8.671875 -1.64715,-0.988259 -3.294286,-1.976537 -4.941407,-2.964844 -0.678772,-0.407263 -1.357544,-0.814526 -2.056884,-1.234131 -0.474939,-0.284963 -0.949878,-0.569926 -1.439209,-0.863525 1.50582,-4.360918 4.287072,-5.583409 8.230468,-7.707031 1.276218,-0.700838 2.551417,-1.403533 3.825684,-2.107911 0.654824,-0.359507 1.309647,-0.719014 1.984314,-1.089416 3.092604,-1.729181 6.114255,-3.569315 9.135315,-5.419861 0.588366,-0.358933 1.176733,-0.717867 1.782928,-1.087677 1.785635,-1.090182 3.569902,-2.182568 5.353791,-3.275604 C -17.089153,-8.2012561 -17.089153,-8.2012561 0,0 Z m -37.450439,23.916504 c -0.770215,0.433769 -1.54043,0.867539 -2.333985,1.314453 -0.726387,0.423457 -1.452773,0.846914 -2.201172,1.283203 -0.654924,0.377776 -1.309848,0.755552 -1.984619,1.144776 -0.701774,0.591558 -0.701774,0.591558 -1.417724,1.195068 0,0.99 0,1.98 0,3 2.017973,1.4667 3.961408,2.695177 6.121093,3.921875 0.963217,0.564904 0.963217,0.564904 1.945893,1.14122 2.11774,1.239158 4.244049,2.462789 6.370514,3.686905 1.473607,0.859221 2.946502,1.719665 4.418701,2.581299 2.976879,1.741491 5.956377,3.478362 8.937744,5.212158 5.706803,3.325182 11.3636747,6.731377 17.01855455,10.144043 C 10.653482,65.294385 21.923464,71.976768 33.20015,78.64949 c 6.462727,3.824957 12.919304,7.660256 19.37593,11.495499 2.021673,1.200519 4.043773,2.400315 6.06601,3.599884 5.995967,3.557307 11.989866,7.117817 17.971863,10.698577 2.525379,1.51116 5.052638,3.01916 7.580139,4.52676 1.187475,0.70951 2.374013,1.4206 3.55957,2.13331 1.624937,0.97672 3.253296,1.94775 4.881836,2.91845 0.917007,0.54938 1.834014,1.09877 2.778809,1.6648 2.077396,1.32359 2.077396,1.32359 4.197754,1.16723 0.07463,-4.28666 0.128825,-8.57298 0.164794,-12.8601 0.01501,-1.4558 0.03542,-2.91155 0.06152,-4.367191 0.03674,-2.102733 0.05349,-4.204864 0.06665,-6.307861 0.01571,-1.262073 0.03142,-2.524146 0.04761,-3.824463 -0.627809,-6.71058 -3.19276,-11.201819 -8.340576,-15.640381 -2.434385,-1.767725 -2.434385,-1.767725 -5.1875,-3.375 C 85.886135,70.154321 85.34771,69.829639 84.792969,69.495117 76.407553,64.479311 67.907677,59.652063 59.436279,54.783691 53.146068,51.166709 46.875953,47.516325 40.612061,43.854004 c -3.999312,-2.334514 -7.999545,-4.667446 -12,-7 -1.115684,-0.650977 -2.231368,-1.301953 -3.38086,-1.972656 -3.45356,-2.013989 -6.911243,-4.020812 -10.36914,-6.027344 C 13.815342,28.242988 12.768623,27.631973 11.690186,27.002441 -8.0640694,15.563115 -17.42676,12.211163 -37.450439,23.916504 Z"
       fill="#5d3a0a"
       transform="translate(192.38794,51.145996)"
       id="path3-6" /></g><polygon
     points="389.76,313.42 403.34,314.11 399.43,461.79 376.26,451.13 "
     fill="#272223"
     isolation="isolate"
     opacity="0.2"
     id="polygon9" /><path
     d="m 487.5,311.06 c -2.77,0 -5.8,-0.68 -8.78,-1.35 -2.21,-0.5 -4.16,-0.62 -5.73,-0.72 -2.37,-0.15 -4.25,-0.27 -5.29,-1.66 -1.03,-1.37 -1.03,-3.7 0,-8.3 1.37,-6.11 4.42,-15.86 8.16,-23.88 4.82,-10.35 9.46,-15.11 13.78,-14.14 5.79,1.3 8.1,10.96 8.96,16.61 1.2,7.88 1.1,17.24 -0.26,23.29 v 0 c -1.8,8.02 -5.93,10.14 -10.84,10.14 v 0 z m 1.06,-48.37 c -3.18,0 -7.08,4.64 -11.07,13.23 -3.68,7.9 -6.69,17.5 -8.03,23.52 -0.87,3.86 -0.96,5.97 -0.31,6.83 0.55,0.73 1.98,0.82 3.97,0.94 1.63,0.1 3.65,0.23 6,0.76 9.33,2.09 15.17,2.85 17.48,-7.44 2.47,-11.03 0.59,-35.98 -7.34,-37.76 -0.23,-0.05 -0.46,-0.08 -0.69,-0.08 z"
     fill="#dfdfe0"
     id="path9" /><polygon
     points="422.51,379.44 430.56,297.33 438.66,297.74 521.97,301.98 525.25,385.21 436.33,385.79 "
     fill="#e2e3e4"
     id="polygon10" /><polygon
     points="430.56,297.33 438.66,297.74 436.33,385.79 422.51,379.44 "
     fill="#272223"
     isolation="isolate"
     opacity="0.2"
     id="polygon11" /><path
     id="uuid-2ebd868f-c256-4818-ab73-e4d3dd12d9e3-46-44-87-46-99-266-1202"
     d="m 492.7,255.64 c 1.49,7.32 -1.24,14.01 -6.08,14.94 -4.84,0.93 -9.97,-4.26 -11.45,-11.58 -0.63,-2.92 -0.53,-5.94 0.29,-8.82 l -5.89,-31.11 15.22,-2.41 4.19,30.92 c 1.89,2.36 3.16,5.12 3.72,8.06 z"
     fill="#f8a8ab" /><path
     d="m 433,71.45 c 0,0 22.26,-2.82 24.92,3.83 2.66,6.65 33.92,164.94 33.92,164.94 h -20.62 z"
     fill="#e2e3e4"
     id="path11" /><polygon
     points="255.98,80.5 276.27,80.5 278.34,105.33 255.98,112.68 "
     fill="#f8a8ab"
     id="polygon12" /><circle
     cx="258.75"
     cy="67.129997"
     r="22.280001"
     fill="#f8a8ab"
     id="circle12" /><path
     d="M 272.51213,255.51864 H 110.23291 c -3.82359,-0.004 -6.92208,-2.7487 -6.92655,-6.13577 V 53.914629 c 0.004,-3.387122 3.1029,-6.131979 6.92655,-6.135774 h 162.27922 c 3.82366,0.0038 6.92227,2.748652 6.92656,6.135774 V 249.38287 c -0.005,3.38707 -3.10296,6.13181 -6.92656,6.13577 z M 110.23291,49.531933 c -2.73111,0.0028 -4.94434,1.963387 -4.94754,4.382696 V 249.38287 c 0.003,2.41931 2.21643,4.37986 4.94754,4.38269 h 162.27922 c 2.73111,-0.003 4.94435,-1.96338 4.94754,-4.38269 V 53.914629 c -0.003,-2.419309 -2.21643,-4.379864 -4.94754,-4.382696 z"
     fill="#e6e6e6"
     id="path26"
     style="stroke-width:0.931312" /><path
     d="m 264.87,64.92 c -3.73,-0.11 -6.18,-3.88 -7.63,-7.32 -1.45,-3.44 -2.94,-7.39 -6.4,-8.81 -2.83,-1.16 -7.82,6.69 -10.05,4.6 -2.33,-2.18 -0.06,-13.37 2.41,-15.38 2.47,-2.01 5.85,-2.4 9.03,-2.55 7.76,-0.36 15.57,0.27 23.18,1.86 4.71,0.98 9.55,2.46 12.95,5.86 4.3,4.32 5.4,10.83 5.71,16.92 0.32,6.23 -0.04,12.75 -3.07,18.2 -3.03,5.45 -9.37,9.47 -15.45,8.08 -0.61,-3.3 0.01,-6.69 0.25,-10.05 0.23,-3.35 -0.01,-6.97 -2.06,-9.64 -2.05,-2.67 -6.42,-3.73 -8.8,-1.36"
     fill="#2f2e43"
     id="path12" /><path
     d="m 292.28,72.64 c 2.23,-1.63 4.9,-3 7.64,-2.66 2.96,0.36 5.47,2.8 6.23,5.69 0.76,2.89 -0.09,6.07 -1.93,8.43 -1.83,2.36 -4.56,3.92 -7.44,4.7 -1.67,0.45 -3.5,0.64 -5.09,-0.04 -2.34,-1.01 -3.61,-4 -2.69,-6.38"
     fill="#2f2e43"
     id="path13" /><rect
     x="250.02"
     y="463.42999"
     width="20.940001"
     height="29.709999"
     fill="#f8a8ab"
     id="rect13" /><path
     d="m 229.62,511.12 c -2.2,0 -4.16,-0.05 -5.64,-0.19 -5.56,-0.51 -10.87,-4.62 -13.54,-7.02 -1.2,-1.08 -1.58,-2.8 -0.96,-4.28 v 0 c 0.45,-1.06 1.34,-1.86 2.45,-2.17 l 14.7,-4.2 23.8,-16.06 0.27,0.48 c 0.1,0.18 2.44,4.39 3.22,7.23 0.3,1.08 0.22,1.98 -0.23,2.68 -0.31,0.48 -0.75,0.76 -1.1,0.92 0.43,0.45 1.78,1.37 5.94,2.03 6.07,0.96 7.35,-5.33 7.4,-5.59 l 0.04,-0.21 0.18,-0.12 c 2.89,-1.86 4.67,-2.71 5.28,-2.53 0.38,0.11 1.02,0.31 2.75,17.44 0.17,0.54 1.38,4.48 0.56,8.25 -0.89,4.1 -18.81,2.69 -22.4,2.37 -0.1,0.01 -13.52,0.97 -22.71,0.97 z"
     fill="#2f2e43"
     id="path14" /><rect
     x="26.690222"
     y="548.34186"
     width="20.940001"
     height="29.709999"
     transform="rotate(-31.95)"
     fill="#f8a8ab"
     id="rect14" /><path
     d="m 306.98,507.05 c -2.46,0 -4.72,-0.3 -6.33,-0.58 -1.58,-0.28 -2.82,-1.54 -3.08,-3.12 v 0 c -0.18,-1.14 0.15,-2.29 0.93,-3.14 l 10.25,-11.34 11.7,-26.22 0.48,0.26 c 0.18,0.1 4.39,2.43 6.56,4.43 0.83,0.76 1.24,1.57 1.22,2.4 -0.01,0.58 -0.23,1.04 -0.45,1.37 0.6,0.16 2.23,0.22 6.11,-1.42 5.66,-2.39 3.42,-8.41 3.32,-8.66 l -0.08,-0.2 0.09,-0.19 c 1.47,-3.11 2.52,-4.77 3.14,-4.94 0.39,-0.11 1.03,-0.28 11.56,13.35 0.43,0.36 3.54,3.07 4.84,6.7 1.41,3.95 -14.54,12.24 -17.75,13.86 -0.1,0.08 -16.79,12.21 -23.65,15.66 -2.72,1.37 -5.94,1.79 -8.87,1.79 v 0 z"
     fill="#2f2e43"
     id="path15" /><path
     d="m 286.38,214.98 h -58.63 l -5.32,54.54 23.28,201.52 h 29.93 l -11.97,-116.39 48.55,105.08 26.6,-18.62 -37.91,-98.1 c 0,0 13.54,-85.46 2.9,-106.75 -10.64,-21.29 -17.43,-21.28 -17.43,-21.28 z"
     fill="#2f2e43"
     id="path16" /><polygon
     points="250.36,97.92 290.93,97.92 315.54,218.3 222.43,218.3 "
     fill="#d8d1d1"
     id="polygon16" /><path
     id="uuid-f899ad7f-3d0f-4b30-ad3c-9c1473a48add-47-45-88-47-100-267-1203"
     d="m 199.3,95.55 c -1.49,-7.32 1.24,-14.01 6.08,-14.94 4.84,-0.93 9.97,4.26 11.45,11.58 0.63,2.92 0.53,5.94 -0.29,8.82 l 5.89,31.11 -15.22,2.41 -4.19,-30.92 c -1.89,-2.36 -3.16,-5.12 -3.72,-8.06 z"
     fill="#f8a8ab" /><path
     d="m 289.94,97.92 h -35.78 l -24.12,48.24 -9.1,-36.15 -19.99,2.12 c 0,0 4.73,70.63 25.4,68.24 20.67,-2.39 68.88,-66.02 63.58,-82.46 h 0.01 z"
     fill="#d8d1d1"
     id="path17" /><path
     d="m 323.73,326.73 c -2.77,0 -5.8,-0.68 -8.78,-1.35 -2.21,-0.5 -4.16,-0.62 -5.73,-0.72 -2.37,-0.15 -4.25,-0.27 -5.29,-1.66 -1.03,-1.37 -1.03,-3.7 0,-8.3 1.37,-6.11 4.42,-15.86 8.16,-23.88 4.82,-10.35 9.46,-15.11 13.78,-14.14 5.79,1.3 8.1,10.96 8.96,16.61 1.2,7.88 1.1,17.24 -0.26,23.29 v 0 c -1.8,8.02 -5.93,10.14 -10.84,10.14 v 0 z m 1.06,-48.37 c -3.18,0 -7.08,4.64 -11.07,13.23 -3.68,7.9 -6.69,17.5 -8.03,23.52 -0.87,3.86 -0.96,5.97 -0.31,6.83 0.55,0.73 1.98,0.82 3.97,0.94 1.63,0.1 3.65,0.23 6,0.76 9.33,2.09 15.17,2.85 17.48,-7.44 2.47,-11.03 0.59,-35.98 -7.34,-37.76 -0.23,-0.05 -0.46,-0.08 -0.69,-0.08 z"
     fill="#dfdfe0"
     id="path18" /><polygon
     points="258.75,395.1 266.8,312.99 274.9,313.4 358.21,317.64 361.49,400.87 272.57,401.45 "
     fill="#e2e3e4"
     id="polygon18" /><polygon
     points="266.8,312.99 274.9,313.4 272.57,401.45 258.75,395.1 "
     fill="#272223"
     isolation="isolate"
     opacity="0.2"
     id="polygon19" /><path
     id="uuid-aa721d86-32e3-4ace-957f-0814f6d1eb89-48-46-89-48-101-268-1204"
     d="m 329.89,281.37 c 1.49,7.32 -1.24,14.01 -6.08,14.94 -4.84,0.93 -9.97,-4.26 -11.45,-11.58 -0.63,-2.92 -0.53,-5.94 0.29,-8.82 l -5.89,-31.11 15.22,-2.41 4.19,30.92 c 1.89,2.36 3.16,5.12 3.72,8.06 z"
     fill="#f8a8ab" /><path
     d="m 269.54,97.92 c 0,0 20.33,-0.86 21.39,0 5.55,4.53 38.1,168.04 38.1,168.04 h -20.62 z"
     fill="#d8d1d1"
     id="path19" /><path
     d="m 382.6095,147.64806 c -0.56439,2.53561 1.03363,5.04868 3.56927,5.61304 0.27032,0.0602 0.54547,0.0964 0.8222,0.10812 l 4.80414,16.00943 5.5708,-6.66409 -5.41614,-14.18115 c -0.0619,-2.61102 -2.22876,-4.67749 -4.83978,-4.61557 -2.18481,0.0518 -4.04956,1.59396 -4.5105,3.73022 z"
     fill="#a0616a"
     id="path5-3"
     style="opacity:0.6" /><path
     d="m 433.32922,152.86247 c 0,0 -11.61395,-4.35455 -17.91052,19.49258 l -8.35858,8.65683 -7.0224,-12.689 0.92853,-3.01016 -5.42712,-12.3038 -9.30499,5.34018 2.29053,8.4472 -0.38702,4.17581 2.22357,2.59723 3.63989,13.42337 2.27698,4.38553 c 0,0 2.87152,5.61523 7.88416,6.54016 1.33624,0.25027 2.70355,0.28909 4.05182,0.11499 3.20612,-0.5015 6.1778,-1.98511 8.50537,-4.24634 6.19751,-5.52667 12.05872,-11.41925 17.55219,-17.64615 l -0.94238,-23.27844 z"
     fill="#e6e6e6"
     id="path6-7"
     style="opacity:0.6" /><path
     d="m 462.05823,158.41701 c -2.19196,-5.17029 -6.72803,-8.9776 -12.20001,-10.23999 l -0.05,-0.01 -2.63,-3.54001 -10.66998,1.07001 -1.95001,4 -5.06,3.01001 h -0.01 l -0.01,0.01 -2.65002,1.57996 -8.78998,10.29001 -0.01,0.01 c -2.6084,1.74142 -4.37872,4.48566 -4.88995,7.57999 -0.13257,0.88342 -0.17609,1.77789 -0.13,2.67001 0.28998,5.47 3.71002,10.34 4.17999,10.98999 l 1.15002,6.47 0.22998,1.32999 2.07001,0.29999 29.15997,4.17001 0.81,0.12006 0.23999,0.03 0.84003,-2.17001 v -0.02 l 8.13,-21.26999 3.65002,-9.48999 c 0.01,-2.36932 -0.47021,-4.71509 -1.41003,-6.89005 z"
     fill="#e6e6e6"
     id="path7-7"
     style="opacity:0.6" /><g
     id="g2"
     transform="matrix(0.20017464,0,0,0.2085167,444.78972,302.2303)"><path
       d="M 0,0 C 3.0805075,1.8171039 6.1924757,3.5778265 9.3022461,5.3442383 20.000514,11.422302 30.630642,17.615125 41.25293,23.824707 c 5.237344,3.060808 10.48564,6.102258 15.738281,9.136719 7.345177,4.246744 14.676461,8.515997 21.976562,12.839844 2.732673,1.618322 5.47792,3.21162 8.234375,4.789062 11.655241,6.719999 18.799812,12.754384 23.851562,25.621094 0.79785,3.989701 1.12822,7.777706 1.14044,11.841827 0.006,1.143645 0.0114,2.287291 0.0173,3.465592 0.001,1.240627 0.002,2.481254 0.003,3.759475 0.005,1.31784 0.01,2.63568 0.0151,3.993454 0.0131,3.605706 0.0196,7.211396 0.024,10.817126 0.003,2.25782 0.007,4.51564 0.0115,6.77346 0.0137,7.07893 0.0233,14.15784 0.0272,21.23678 0.004,8.14387 0.022,16.28757 0.051,24.43138 0.0217,6.31279 0.0317,12.62553 0.033,18.93835 0.001,3.76185 0.007,7.52354 0.0248,11.28535 0.0166,3.54431 0.0186,7.08834 0.01,10.63268 -0.001,1.90133 0.0125,3.80266 0.0267,5.70394 -0.0528,11.00436 -1.24427,21.15968 -8.71249,29.6909 -4.988879,4.53667 -10.705825,7.84482 -16.530766,11.19726 -2.049085,1.17945 -4.083198,2.38081 -6.113769,3.5918 -4.326861,2.57379 -8.676443,5.10776 -13.027344,7.64063 -1.937598,1.13004 -3.875092,2.26026 -5.8125,3.39062 -3.104835,1.81138 -6.20987,3.62241 -9.315674,5.43213 -5.863203,3.41722 -11.716273,6.85072 -17.559326,10.30225 -8.075918,4.76511 -16.215008,9.41759 -24.367188,14.05078 -2.9572258,1.68236 -5.902476,3.38052 -8.8281246,5.11718 -3.3411798,1.96742 -6.7089522,3.85843 -10.1171875,5.70704 -0.6002197,0.33435 -1.2004394,0.6687 -1.8188476,1.01318 -11.4721173,6.25671 -23.3875153,8.6505 -36.3061523,5.4624 -4.929449,-1.57656 -9.392125,-3.91735 -13.875,-6.47558 -0.762481,-0.43426 -1.524961,-0.86851 -2.310547,-1.31592 -5.104648,-2.94618 -10.131712,-6.00994 -15.142578,-9.11231 -4.078212,-2.51682 -8.186685,-4.98263 -12.296875,-7.44677 -0.811465,-0.48727 -1.62293,-0.97454 -2.458984,-1.47657 -13.177337,-7.89614 -26.420647,-15.69414 -39.853517,-23.14843 -6.72064,-3.74929 -13.34074,-7.66226 -19.9375,-11.625 -0.96817,-0.57428 -1.93633,-1.14856 -2.93384,-1.74024 -11.18452,-6.7718 -19.95651,-14.0442 -23.71362,-27.02612 -2.33151,-9.86623 -1.74087,-20.08692 -1.68066,-30.15943 0.003,-2.2627 0.005,-4.52542 0.006,-6.78813 0.005,-4.74151 0.019,-9.48285 0.0412,-14.22432 0.028,-5.98157 0.0391,-11.96301 0.0438,-17.94464 0.0175,-20.42803 0.0588,-40.86235 0.56553,-61.285093 0.0322,-1.795742 0.0322,-1.795742 0.0651,-3.627762 0.34207,-10.894598 2.77836,-19.250876 10.60675,-27.079269 9.02644,-7.342207 19.43292,-12.862207 29.51953,-18.588379 4.04749,-2.303401 8.0763,-4.638883 12.10547,-6.974121 0.79277,-0.459068 1.58555,-0.918135 2.40234,-1.391114 17.97872,-10.417468 35.799498,-21.095986 53.589848,-31.8315425 3.453957,-2.08351839 6.91526,-4.1540243 10.382813,-6.2148437 0.853359,-0.5104688 1.706719,-1.0209375 2.585937,-1.546875 2.110138,-1.2243118 4.229857,-2.3674086 6.414063,-3.453125 0.630352,-0.3183985 1.260703,-0.6367969 1.910156,-0.9648438 C -32.365136,-17.141869 -15.137456,-9.0181415 0,0 Z m -56.008789,31.273926 c -0.770215,0.433769 -1.54043,0.867539 -2.333984,1.314453 -0.726387,0.423457 -1.452774,0.846914 -2.201172,1.283203 -0.654925,0.377776 -1.309849,0.755552 -1.984619,1.144775 -0.701774,0.591559 -0.701774,0.591559 -1.417725,1.195069 0,0.99 0,1.98 0,3 2.017973,1.4667 3.961408,2.695177 6.121094,3.921875 0.963216,0.564904 0.963216,0.564904 1.945892,1.14122 2.11774,1.239158 4.24405,2.462789 6.370514,3.686905 1.473607,0.859221 2.946503,1.719665 4.418701,2.581299 2.976879,1.741491 5.956378,3.478362 8.937744,5.212158 5.706804,3.325182 11.363675,6.731377 17.018555,10.144043 11.2289217,6.752881 22.4989031,13.435264 33.775589,20.107986 6.462727,3.824957 12.919305,7.660256 19.375931,11.495499 2.021673,1.200519 4.043772,2.400315 6.066009,3.599879 5.995968,3.55731 11.989866,7.11782 17.971863,10.69858 2.525379,1.51116 5.052639,3.01916 7.580139,4.52677 1.187475,0.70951 2.374014,1.42059 3.55957,2.1333 1.624937,0.97672 3.253297,1.94775 4.881836,2.91845 0.917007,0.54939 1.834014,1.09877 2.778809,1.6648 2.077396,1.32359 2.077396,1.32359 4.197754,1.16724 0.07463,-4.28667 0.128825,-8.57299 0.164795,-12.86011 0.01501,-1.4558 0.03542,-2.91155 0.06152,-4.36719 0.03674,-2.10273 0.05349,-4.20486 0.06665,-6.30786 0.01571,-1.262073 0.03142,-2.524146 0.04761,-3.824463 -0.627809,-6.71058 -3.192759,-11.201819 -8.340576,-15.640381 -2.434384,-1.767725 -2.434384,-1.767725 -5.1875,-3.375 C 67.327786,77.511743 66.78936,77.187061 66.234619,76.852539 57.849204,71.836733 49.349328,67.009485 40.87793,62.141113 34.587719,58.524131 28.317603,54.873746 22.053711,51.211426 c -3.999312,-2.334514 -7.999545,-4.667446 -12,-7 C 8.9380273,43.560449 7.8223437,42.909473 6.6728516,42.23877 3.2192918,40.224781 -0.2383918,38.217958 -3.6962891,36.211426 -4.7430078,35.60041 -5.7897266,34.989395 -6.8681641,34.359863 -26.622419,22.920537 -35.98511,19.568585 -56.008789,31.273926 Z m -48.437501,10.0625 c -0.72381,0.407263 -1.44762,0.814526 -2.19336,1.234131 -5.26248,2.987527 -10.36598,6.141237 -15.30664,9.640869 3.96021,3.29891 8.10343,6.106167 12.4375,8.875 1.081,0.693797 1.081,0.693797 2.18384,1.401611 1.58504,1.016321 3.17094,2.031313 4.75757,3.045166 2.857513,1.829598 5.708047,3.669814 8.558591,5.510254 1.999772,1.28551 3.99977,2.570671 6,3.855469 0.965427,0.624389 1.930854,1.248779 2.925537,1.89209 1.349769,0.863591 1.349769,0.863591 2.726807,1.744629 0.803005,0.516511 1.60601,1.033022 2.433349,1.565185 1.889514,1.273865 1.889514,1.273865 3.976807,1.110596 0,0.66 0,1.32 0,2 0.778594,0.426679 1.557187,0.853359 2.359375,1.292969 9.017215,5.038421 17.657834,10.546988 26.292969,16.210935 5.440116,3.56698 10.919278,7.0704 16.410156,10.5586 0.924499,0.58749 1.848999,1.17498 2.801514,1.78027 6.574552,4.17377 13.160752,8.32895 19.7482906,12.48218 7.65914292,4.83497 15.285209,9.72129 22.9116214,14.60766 8.68162,5.56185 17.376195,11.10302 26.077636,16.63379 3.643421,2.31596 7.283775,4.63663 10.921875,6.96094 9.295274,5.9354 18.610727,11.8366 27.976563,17.66016 0.86633,0.54084 1.732661,1.08168 2.625244,1.63891 4.209744,2.60762 8.396214,5.05791 12.874756,7.17359 0.358557,-4.46917 0.639515,-8.93654 0.862305,-13.41407 0.096,-1.80288 0.207208,-3.60499 0.330078,-5.40625 0.19074,-2.93446 0.316832,-5.8664 0.432617,-8.80468 0.07154,-0.93538 0.143086,-1.87076 0.216797,-2.83448 0.147278,-5.06395 0.147278,-5.06395 -2.404053,-9.23437 -2.397713,-1.64132 -4.859251,-2.96592 -7.437744,-4.30615 -2.177177,-1.28753 -4.350069,-2.58233 -6.519531,-3.88282 -1.799561,-1.0533 -3.602716,-2.10026 -5.406159,-3.14691 -3.247137,-1.88493 -6.488599,-3.77958 -9.73056,-5.6734 -0.641535,-0.3745 -1.28307,-0.749 -1.944046,-1.13486 -5.09297,-2.97567 -10.1609,-5.9911 -15.212204,-9.03701 -8.601941,-5.185 -17.235833,-10.31489 -25.875,-15.4375 -9.61912,-5.7045 -19.2283123,-11.424417 -28.8125001,-17.187504 -9.4801159,-5.700467 -18.9851639,-11.357778 -28.4999999,-17 -9.763553,-5.790112 -19.518245,-11.594035 -29.25,-17.4375 -0.999668,-0.600139 -1.999336,-1.200279 -3.029297,-1.818604 -4.894671,-2.94028 -9.785886,-5.886193 -14.673828,-8.837646 -0.936826,-0.56469 -1.873652,-1.12938 -2.838867,-1.711182 -1.762219,-1.062383 -3.523347,-2.126579 -5.283203,-3.192871 -1.153872,-0.695248 -1.153872,-0.695248 -2.331055,-1.404541 -0.673535,-0.407263 -1.34707,-0.814526 -2.041016,-1.234131 -3.546694,-1.97243 -6.886555,1.475708 -10.052735,3.261475 z m -21.5,28.875 c -2.55148,1.506041 -5.09023,3.028765 -7.625,4.5625 -0.71285,0.418301 -1.4257,0.836601 -2.16016,1.267578 -5.06376,3.089358 -10.84789,6.965504 -12.77174,12.882812 -0.56137,2.897586 -0.60778,5.65925 -0.64842,8.611573 -0.0199,1.288181 -0.0399,2.576361 -0.0604,3.903581 -0.017,1.41487 -0.0339,2.82974 -0.0506,4.24461 -0.0206,1.47986 -0.0416,2.95971 -0.063,4.43956 -0.044,3.12469 -0.0849,6.2494 -0.1233,9.37416 -0.0479,3.88995 -0.10184,7.77979 -0.15794,11.66963 -0.13253,9.23161 -0.235,18.46328 -0.31757,27.69546 -0.0221,2.37668 -0.047,4.75332 -0.0723,7.12997 -0.0404,3.92803 -0.0685,7.85599 -0.0883,11.78418 -0.009,1.46116 -0.0211,2.92231 -0.0373,4.38341 -0.98803,18.78943 -0.98803,18.78943 5.31275,35.51973 10.50397,8.63219 23.13469,14.74619 34.92238,21.4393 12.847744,7.29611 25.566751,14.80013 38.175276,22.5021 0.62306,0.38015 1.246121,0.7603 1.888061,1.15196 3.0578,1.86608 6.112858,3.73635 9.16272,5.61538 13.365555,8.91027 13.365555,8.91027 28.714844,11.82251 6.0552,-1.46588 11.558427,-4.09217 17,-7.0625 0.731462,-0.39357 1.462925,-0.78714 2.216553,-1.19263 7.223543,-3.92007 14.2891093,-8.09713 21.3488766,-12.30249 4.6911444,-2.77931 9.4092724,-5.51252 14.1220704,-8.25488 4.105207,-2.39406 8.209059,-4.79043 12.3125,-7.1875 0.961963,-0.56155 1.923926,-1.1231 2.915039,-1.70166 9.967752,-5.82623 19.896856,-11.7145 29.709961,-17.79834 0.78802,-0.48034 1.57604,-0.96068 2.387939,-1.45557 6.2562,-3.92332 9.502984,-7.41846 11.787842,-14.54053 0.66318,-3.81202 0.605465,-5.86143 -0.800781,-9.5039 -4.858747,-4.54101 -11.266572,-7.34346 -17.100586,-10.41846 -4.700487,-2.56397 -9.161191,-5.4792 -13.649414,-8.39404 -1.844086,-1.1825 -3.689153,-2.36347 -5.535156,-3.54297 -0.932154,-0.59603 -1.864307,-1.19206 -2.824707,-1.80616 -5.006891,-3.18481 -10.042339,-6.32373 -15.077637,-9.46337 -7.116795,-4.43864 -14.225544,-8.88887 -21.3125001,-13.375 -10.1141035,-6.40007 -20.2662999,-12.73876 -30.4194339,-19.07666 -5.028031,-3.13924 -10.054219,-6.28142 -15.080566,-9.42334 -1.999991,-1.25002 -3.999991,-2.50002 -6,-3.75 -4,-2.5 -8,-5 -12,-7.5 -0.990403,-0.619 -1.980806,-1.23799 -3.001221,-1.87574 -1.995967,-1.2475 -3.991898,-2.49506 -5.987793,-3.74267 -5.061395,-3.16374 -10.12346,-6.32639 -15.186767,-9.487063 -2.045616,-1.277275 -4.09119,-2.554618 -6.136719,-3.832031 -0.990564,-0.618509 -1.981128,-1.237017 -3.001709,-1.874268 -7.197696,-4.498188 -14.378092,-9.023206 -21.536622,-13.583496 -4.32034,-2.741913 -8.68646,-5.350692 -13.14917,-7.854736 z"
       fill="#fdfdfc"
       transform="translate(210.94629,43.788574)"
       id="path1-7" /><path
       d="m 0,0 c 2.0544434,1.0847168 2.0544434,1.0847168 4.0898437,2.4492188 0.7742432,0.51208 1.5484864,1.0241601 2.3461915,1.5517578 1.238225,0.8348291 1.238225,0.8348291 2.5014648,1.6865234 1.776617,1.1768797 3.55399,2.3526177 5.332031,3.5273438 1.393396,0.9240162 1.393396,0.9240162 2.814942,1.8666992 4.979285,3.276438 10.009471,6.47231 15.040527,9.668457 0.953826,0.608035 1.907651,1.216069 2.890381,1.842529 0.884377,0.562434 1.768755,1.124868 2.679931,1.704346 0.783912,0.498545 1.567823,0.99709 2.375489,1.510742 C 41.978928,27.026894 41.978928,27.026894 44,28 c 0,0.66 0,1.32 0,2 0.835312,0.232031 1.670625,0.464062 2.53125,0.703125 4.093217,1.530347 7.35782,3.621366 10.96875,6.046875 1.516293,0.99966 3.033254,1.998309 4.550781,2.996094 0.802603,0.529643 1.605205,1.059287 2.432129,1.60498 4.373219,2.864862 8.790021,5.660874 13.20459,8.461426 1.875038,1.191347 3.750037,2.382754 5.625,3.574219 0.938438,0.59603 1.876875,1.19206 2.84375,1.806152 2.824051,1.794611 5.646666,3.591457 8.46875,5.38916 8.55216,5.447526 17.1093,10.886527 25.6875,16.292969 8.4287,5.313785 16.82188,10.682285 25.21143,16.057617 9.56986,6.130901 19.15664,12.234903 28.74804,18.332033 2.81021,1.78763 5.61891,3.5776 8.42725,5.36816 9.18768,5.85607 18.37941,11.70266 27.64404,17.43653 4.55233,2.82625 4.55233,2.82625 5.65674,3.93066 0.31581,4.14617 0.357,8.2963 0.40503,12.45337 0.0215,1.39381 0.0554,2.78749 0.10254,4.18066 0.47485,14.17301 0.47485,14.17301 -4.73535,19.82373 -2.86504,2.49324 -5.79245,4.52863 -9.08472,6.41724 -0.70165,0.42015 -1.40331,0.84031 -2.12622,1.27319 -2.17835,1.29945 -4.36879,2.57642 -6.56128,3.85181 -1.26905,0.75252 -2.53731,1.50638 -3.80469,2.26172 -3.48511,2.06983 -6.98415,4.11511 -10.48584,6.15674 -5.10094,2.97746 -10.19432,5.96788 -15.28921,8.95569 -1.9194,1.12535 -3.83909,2.25019 -5.75888,3.37487 -5.89759,3.45531 -11.79258,6.91482 -17.67725,10.39209 -49.486284,29.21561 -49.486284,29.21561 -61.597411,26.21045 -4.929926,-1.66947 -9.398146,-3.83056 -13.875,-6.47656 -1.570924,-0.92825 -1.570924,-0.92825 -3.173584,-1.87524 -6.348231,-3.803 -12.666466,-7.65455 -18.978272,-11.51758 -7.605725,-4.65216 -15.26557,-9.18217 -23.020019,-13.58203 C 15.347221,207.05968 10.393401,204.1539 5.4375,201.25 c -6.10280043,-3.57417 -12.2107881,-7.13502 -18.371094,-10.60938 -0.938357,-0.53012 -1.876714,-1.06025 -2.843506,-1.60644 -1.754587,-0.9886 -3.51173,-1.97268 -5.271972,-2.95117 -18.405998,-10.37763 -18.405998,-10.37763 -21.858094,-19.47321 -1.859945,-6.67718 -2.509011,-12.74312 -2.420959,-19.65668 0.0013,-1.0577 0.0027,-2.1154 0.004,-3.20515 0.009,-3.49959 0.04061,-6.99853 0.0741,-10.49797 0.01475,-2.47517 0.02873,-4.95035 0.04199,-7.42554 0.03274,-5.36008 0.07745,-10.71991 0.129883,-16.07983 0.05916,-6.07842 0.09857,-12.156703 0.125,-18.235353 0.03183,-7.302185 0.07865,-14.604087 0.143452,-21.906057 0.0351,-3.968378 0.06457,-7.93659 0.07957,-11.9051 0.01496,-3.759847 0.04941,-7.519045 0.09816,-11.278601 0.01483,-1.386673 0.023,-2.773437 0.0239,-4.16019 0.01042,-8.414015 0.148391,-15.304235 6.033889,-21.843573 4.760005,-4.645346 10.922636,-7.761917 16.636658,-11.087631 2.587483,-1.5102139 5.120263,-3.0750165 7.625,-4.71875 0.869875,-0.5638843 0.869875,-0.5638843 1.757324,-1.1391602 C -10.96593,2.4342576 -9.3850451,1.3854727 -7.8047105,0.3359375 -4.4709916,-1.2519789 -3.4734975,-0.9915358 0,0 Z m -6,17 c -2.5514816,1.506041 -5.090232,3.028765 -7.625,4.5625 -0.712852,0.418301 -1.425703,0.836602 -2.160156,1.267578 -5.063761,3.089358 -10.847891,6.965504 -12.771744,12.882813 -0.561372,2.897585 -0.607777,5.65925 -0.648422,8.611572 -0.01994,1.288181 -0.03989,2.576363 -0.06044,3.90358 -0.01704,1.414869 -0.03392,2.82974 -0.05064,4.244613 -0.02065,1.479858 -0.04165,2.959712 -0.06297,4.43956 -0.04403,3.124689 -0.08488,6.249398 -0.123307,9.374161 -0.04793,3.889951 -0.101839,7.779786 -0.157938,11.669626 -0.132526,9.231607 -0.234992,18.46328 -0.317564,27.695467 -0.02207,2.37668 -0.04701,4.75331 -0.07229,7.12996 -0.04046,3.92803 -0.06853,7.85599 -0.0883,11.78418 -0.0088,1.46116 -0.02108,2.92231 -0.03725,4.38341 -0.988035,18.78944 -0.988035,18.78944 5.312746,35.51973 10.503969,8.63219 23.1346913,14.7462 34.922378,21.4393 12.847747,7.29612 25.566753,14.80013 38.175278,22.50211 0.62306,0.38014 1.246121,0.76029 1.888062,1.15196 3.057799,1.86608 6.112857,3.73635 9.162719,5.61537 C 72.650711,224.08777 72.650711,224.08777 88,227 c 6.0552,-1.46588 11.558427,-4.09217 17,-7.0625 0.73146,-0.39357 1.46292,-0.78713 2.21655,-1.19263 7.22355,-3.92007 14.28911,-8.09712 21.34888,-12.30249 4.69114,-2.77931 9.40927,-5.51251 14.12207,-8.25488 4.10521,-2.39405 8.20906,-4.79042 12.3125,-7.1875 0.96196,-0.56155 1.92393,-1.1231 2.91504,-1.70166 9.96775,-5.82622 19.89685,-11.7145 29.70996,-17.79834 0.78802,-0.48034 1.57604,-0.96067 2.38794,-1.45557 6.2562,-3.92332 9.50298,-7.41845 11.78784,-14.54052 0.66318,-3.81202 0.60547,-5.86143 -0.80078,-9.50391 -4.85875,-4.54101 -11.26657,-7.34346 -17.10059,-10.41846 -4.70048,-2.56397 -9.16119,-5.4792 -13.64941,-8.39404 -1.84409,-1.1825 -3.68915,-2.36347 -5.53516,-3.54297 -0.93215,-0.59603 -1.8643,-1.19206 -2.8247,-1.80615 C 156.88325,118.65356 151.8478,115.51464 146.8125,112.375 139.6957,107.93637 132.58696,103.48613 125.5,99 115.3859,92.599939 105.2337,86.26124 95.080566,79.92334 90.052535,76.784108 85.026347,73.641928 80,70.5 c -1.999991,-1.250015 -3.999991,-2.500015 -6,-3.75 -4,-2.5 -8,-5 -12,-7.5 -0.990403,-0.618992 -1.980806,-1.237983 -3.001221,-1.875732 -1.995967,-1.2475 -3.991898,-2.495059 -5.987793,-3.742676 C 47.949591,50.467858 42.887526,47.305204 37.824219,44.144531 35.778603,42.867257 33.733029,41.589914 31.6875,40.3125 30.696936,39.693992 29.706372,39.075483 28.685791,38.438232 21.488095,33.940044 14.307702,29.415026 7.1491699,24.854736 2.8288318,22.112823 -1.5372881,19.504045 -6,17 Z"
       fill="#bd9323"
       transform="translate(91,97)"
       id="path2-1" /><path
       d="m 0,0 c 2.4455994,1.3383267 4.8440703,2.73627 7.2370605,4.1665039 0.8967847,0.524165 1.7935694,1.0483301 2.7175293,1.5883789 1.9113552,1.1183197 3.8200772,2.2411494 5.7263182,3.3681641 2.922092,1.7256061 5.85266,3.4357761 8.786621,5.1411131 6.05414,3.519779 12.099651,7.054195 18.144532,10.589844 3.957657,2.313658 7.916028,4.626091 11.875,6.9375 0.976626,0.57041 1.953251,1.14082 2.959472,1.728516 6.46806,3.773298 12.952513,7.517199 19.44458,11.249023 22.542009,12.962341 22.542009,12.962341 28.720947,17.084961 0.84949,0.56332 1.69898,1.126641 2.57422,1.707031 4.307,4.07119 6.18651,7.9129 6.77385,13.755203 0.11475,4.289352 0.10233,8.560621 0.0426,12.850266 -0.007,1.580396 -0.0132,3.160802 -0.0172,4.741211 -0.0152,4.136435 -0.0544,8.272295 -0.0988,12.408505 -0.0411,4.22997 -0.0592,8.46002 -0.0793,12.69013 -0.0428,8.28281 -0.11092,16.56516 -0.19531,24.84765 -14.778264,-8.43017 -14.778264,-8.43017 -21.183593,-12.18359 -0.588301,-0.34467 -1.176602,-0.68934 -1.78273,-1.04445 -1.218885,-0.71438 -2.437551,-1.42913 -3.655991,-2.14427 -1.810769,-1.06259 -3.622499,-2.12354 -5.434326,-3.18433 -6.781242,-3.9744 -13.537286,-7.98842 -20.273209,-12.03914 C 55.949138,110.4509 49.59371,106.68168 43.236816,102.91431 32.845301,96.755009 22.464383,90.57903 12.112061,84.354004 c -9.480114,-5.700471 -18.9851645,-11.357778 -28.5,-17 -12.729024,-7.548734 -25.432035,-15.139251 -38.114747,-22.765625 -4.814019,-2.893789 -9.631017,-5.782611 -14.447753,-8.671875 -1.64715,-0.988259 -3.294286,-1.976537 -4.941407,-2.964844 -0.678772,-0.407263 -1.357544,-0.814526 -2.056884,-1.234131 -0.474939,-0.284963 -0.949878,-0.569926 -1.439209,-0.863525 1.50582,-4.360918 4.287072,-5.583409 8.230468,-7.707031 1.276218,-0.700838 2.551417,-1.403533 3.825684,-2.107911 0.654824,-0.359507 1.309647,-0.719014 1.984314,-1.089416 3.092604,-1.729181 6.114255,-3.569315 9.135315,-5.419861 0.588366,-0.358933 1.176733,-0.717867 1.782928,-1.087677 1.785635,-1.090182 3.569902,-2.182568 5.353791,-3.275604 C -17.089153,-8.2012561 -17.089153,-8.2012561 0,0 Z m -37.450439,23.916504 c -0.770215,0.433769 -1.54043,0.867539 -2.333985,1.314453 -0.726387,0.423457 -1.452773,0.846914 -2.201172,1.283203 -0.654924,0.377776 -1.309848,0.755552 -1.984619,1.144776 -0.701774,0.591558 -0.701774,0.591558 -1.417724,1.195068 0,0.99 0,1.98 0,3 2.017973,1.4667 3.961408,2.695177 6.121093,3.921875 0.963217,0.564904 0.963217,0.564904 1.945893,1.14122 2.11774,1.239158 4.244049,2.462789 6.370514,3.686905 1.473607,0.859221 2.946502,1.719665 4.418701,2.581299 2.976879,1.741491 5.956377,3.478362 8.937744,5.212158 5.706803,3.325182 11.3636747,6.731377 17.01855455,10.144043 C 10.653482,65.294385 21.923464,71.976768 33.20015,78.64949 c 6.462727,3.824957 12.919304,7.660256 19.37593,11.495499 2.021673,1.200519 4.043773,2.400315 6.06601,3.599884 5.995967,3.557307 11.989866,7.117817 17.971863,10.698577 2.525379,1.51116 5.052638,3.01916 7.580139,4.52676 1.187475,0.70951 2.374013,1.4206 3.55957,2.13331 1.624937,0.97672 3.253296,1.94775 4.881836,2.91845 0.917007,0.54938 1.834014,1.09877 2.778809,1.6648 2.077396,1.32359 2.077396,1.32359 4.197754,1.16723 0.07463,-4.28666 0.128825,-8.57298 0.164794,-12.8601 0.01501,-1.4558 0.03542,-2.91155 0.06152,-4.367191 0.03674,-2.102733 0.05349,-4.204864 0.06665,-6.307861 0.01571,-1.262073 0.03142,-2.524146 0.04761,-3.824463 -0.627809,-6.71058 -3.19276,-11.201819 -8.340576,-15.640381 -2.434385,-1.767725 -2.434385,-1.767725 -5.1875,-3.375 C 85.886135,70.154321 85.34771,69.829639 84.792969,69.495117 76.407553,64.479311 67.907677,59.652063 59.436279,54.783691 53.146068,51.166709 46.875953,47.516325 40.612061,43.854004 c -3.999312,-2.334514 -7.999545,-4.667446 -12,-7 -1.115684,-0.650977 -2.231368,-1.301953 -3.38086,-1.972656 -3.45356,-2.013989 -6.911243,-4.020812 -10.36914,-6.027344 C 13.815342,28.242988 12.768623,27.631973 11.690186,27.002441 -8.0640694,15.563115 -17.42676,12.211163 -37.450439,23.916504 Z"
       fill="#5d3a0a"
       transform="translate(192.38794,51.145996)"
       id="path3-8" /></g><g
     id="g3"
     transform="matrix(0.21877523,0,0,0.21409053,278.09768,316.58112)"><path
       d="M 0,0 C 3.0805075,1.8171039 6.1924757,3.5778265 9.3022461,5.3442383 20.000514,11.422302 30.630642,17.615125 41.25293,23.824707 c 5.237344,3.060808 10.48564,6.102258 15.738281,9.136719 7.345177,4.246744 14.676461,8.515997 21.976562,12.839844 2.732673,1.618322 5.47792,3.21162 8.234375,4.789062 11.655241,6.719999 18.799812,12.754384 23.851562,25.621094 0.79785,3.989701 1.12822,7.777706 1.14044,11.841827 0.006,1.143645 0.0114,2.287291 0.0173,3.465592 0.001,1.240627 0.002,2.481254 0.003,3.759475 0.005,1.31784 0.01,2.63568 0.0151,3.993454 0.0131,3.605706 0.0196,7.211396 0.024,10.817126 0.003,2.25782 0.007,4.51564 0.0115,6.77346 0.0137,7.07893 0.0233,14.15784 0.0272,21.23678 0.004,8.14387 0.022,16.28757 0.051,24.43138 0.0217,6.31279 0.0317,12.62553 0.033,18.93835 0.001,3.76185 0.007,7.52354 0.0248,11.28535 0.0166,3.54431 0.0186,7.08834 0.01,10.63268 -0.001,1.90133 0.0125,3.80266 0.0267,5.70394 -0.0528,11.00436 -1.24427,21.15968 -8.71249,29.6909 -4.988879,4.53667 -10.705825,7.84482 -16.530766,11.19726 -2.049085,1.17945 -4.083198,2.38081 -6.113769,3.5918 -4.326861,2.57379 -8.676443,5.10776 -13.027344,7.64063 -1.937598,1.13004 -3.875092,2.26026 -5.8125,3.39062 -3.104835,1.81138 -6.20987,3.62241 -9.315674,5.43213 -5.863203,3.41722 -11.716273,6.85072 -17.559326,10.30225 -8.075918,4.76511 -16.215008,9.41759 -24.367188,14.05078 -2.9572258,1.68236 -5.902476,3.38052 -8.8281246,5.11718 -3.3411798,1.96742 -6.7089522,3.85843 -10.1171875,5.70704 -0.6002197,0.33435 -1.2004394,0.6687 -1.8188476,1.01318 -11.4721173,6.25671 -23.3875153,8.6505 -36.3061523,5.4624 -4.929449,-1.57656 -9.392125,-3.91735 -13.875,-6.47558 -0.762481,-0.43426 -1.524961,-0.86851 -2.310547,-1.31592 -5.104648,-2.94618 -10.131712,-6.00994 -15.142578,-9.11231 -4.078212,-2.51682 -8.186685,-4.98263 -12.296875,-7.44677 -0.811465,-0.48727 -1.62293,-0.97454 -2.458984,-1.47657 -13.177337,-7.89614 -26.420647,-15.69414 -39.853517,-23.14843 -6.72064,-3.74929 -13.34074,-7.66226 -19.9375,-11.625 -0.96817,-0.57428 -1.93633,-1.14856 -2.93384,-1.74024 -11.18452,-6.7718 -19.95651,-14.0442 -23.71362,-27.02612 -2.33151,-9.86623 -1.74087,-20.08692 -1.68066,-30.15943 0.003,-2.2627 0.005,-4.52542 0.006,-6.78813 0.005,-4.74151 0.019,-9.48285 0.0412,-14.22432 0.028,-5.98157 0.0391,-11.96301 0.0438,-17.94464 0.0175,-20.42803 0.0588,-40.86235 0.56553,-61.285093 0.0322,-1.795742 0.0322,-1.795742 0.0651,-3.627762 0.34207,-10.894598 2.77836,-19.250876 10.60675,-27.079269 9.02644,-7.342207 19.43292,-12.862207 29.51953,-18.588379 4.04749,-2.303401 8.0763,-4.638883 12.10547,-6.974121 0.79277,-0.459068 1.58555,-0.918135 2.40234,-1.391114 17.97872,-10.417468 35.799498,-21.095986 53.589848,-31.8315425 3.453957,-2.08351839 6.91526,-4.1540243 10.382813,-6.2148437 0.853359,-0.5104688 1.706719,-1.0209375 2.585937,-1.546875 2.110138,-1.2243118 4.229857,-2.3674086 6.414063,-3.453125 0.630352,-0.3183985 1.260703,-0.6367969 1.910156,-0.9648438 C -32.365136,-17.141869 -15.137456,-9.0181415 0,0 Z m -56.008789,31.273926 c -0.770215,0.433769 -1.54043,0.867539 -2.333984,1.314453 -0.726387,0.423457 -1.452774,0.846914 -2.201172,1.283203 -0.654925,0.377776 -1.309849,0.755552 -1.984619,1.144775 -0.701774,0.591559 -0.701774,0.591559 -1.417725,1.195069 0,0.99 0,1.98 0,3 2.017973,1.4667 3.961408,2.695177 6.121094,3.921875 0.963216,0.564904 0.963216,0.564904 1.945892,1.14122 2.11774,1.239158 4.24405,2.462789 6.370514,3.686905 1.473607,0.859221 2.946503,1.719665 4.418701,2.581299 2.976879,1.741491 5.956378,3.478362 8.937744,5.212158 5.706804,3.325182 11.363675,6.731377 17.018555,10.144043 11.2289217,6.752881 22.4989031,13.435264 33.775589,20.107986 6.462727,3.824957 12.919305,7.660256 19.375931,11.495499 2.021673,1.200519 4.043772,2.400315 6.066009,3.599879 5.995968,3.55731 11.989866,7.11782 17.971863,10.69858 2.525379,1.51116 5.052639,3.01916 7.580139,4.52677 1.187475,0.70951 2.374014,1.42059 3.55957,2.1333 1.624937,0.97672 3.253297,1.94775 4.881836,2.91845 0.917007,0.54939 1.834014,1.09877 2.778809,1.6648 2.077396,1.32359 2.077396,1.32359 4.197754,1.16724 0.07463,-4.28667 0.128825,-8.57299 0.164795,-12.86011 0.01501,-1.4558 0.03542,-2.91155 0.06152,-4.36719 0.03674,-2.10273 0.05349,-4.20486 0.06665,-6.30786 0.01571,-1.262073 0.03142,-2.524146 0.04761,-3.824463 -0.627809,-6.71058 -3.192759,-11.201819 -8.340576,-15.640381 -2.434384,-1.767725 -2.434384,-1.767725 -5.1875,-3.375 C 67.327786,77.511743 66.78936,77.187061 66.234619,76.852539 57.849204,71.836733 49.349328,67.009485 40.87793,62.141113 34.587719,58.524131 28.317603,54.873746 22.053711,51.211426 c -3.999312,-2.334514 -7.999545,-4.667446 -12,-7 C 8.9380273,43.560449 7.8223437,42.909473 6.6728516,42.23877 3.2192918,40.224781 -0.2383918,38.217958 -3.6962891,36.211426 -4.7430078,35.60041 -5.7897266,34.989395 -6.8681641,34.359863 -26.622419,22.920537 -35.98511,19.568585 -56.008789,31.273926 Z m -48.437501,10.0625 c -0.72381,0.407263 -1.44762,0.814526 -2.19336,1.234131 -5.26248,2.987527 -10.36598,6.141237 -15.30664,9.640869 3.96021,3.29891 8.10343,6.106167 12.4375,8.875 1.081,0.693797 1.081,0.693797 2.18384,1.401611 1.58504,1.016321 3.17094,2.031313 4.75757,3.045166 2.857513,1.829598 5.708047,3.669814 8.558591,5.510254 1.999772,1.28551 3.99977,2.570671 6,3.855469 0.965427,0.624389 1.930854,1.248779 2.925537,1.89209 1.349769,0.863591 1.349769,0.863591 2.726807,1.744629 0.803005,0.516511 1.60601,1.033022 2.433349,1.565185 1.889514,1.273865 1.889514,1.273865 3.976807,1.110596 0,0.66 0,1.32 0,2 0.778594,0.426679 1.557187,0.853359 2.359375,1.292969 9.017215,5.038421 17.657834,10.546988 26.292969,16.210935 5.440116,3.56698 10.919278,7.0704 16.410156,10.5586 0.924499,0.58749 1.848999,1.17498 2.801514,1.78027 6.574552,4.17377 13.160752,8.32895 19.7482906,12.48218 7.65914292,4.83497 15.285209,9.72129 22.9116214,14.60766 8.68162,5.56185 17.376195,11.10302 26.077636,16.63379 3.643421,2.31596 7.283775,4.63663 10.921875,6.96094 9.295274,5.9354 18.610727,11.8366 27.976563,17.66016 0.86633,0.54084 1.732661,1.08168 2.625244,1.63891 4.209744,2.60762 8.396214,5.05791 12.874756,7.17359 0.358557,-4.46917 0.639515,-8.93654 0.862305,-13.41407 0.096,-1.80288 0.207208,-3.60499 0.330078,-5.40625 0.19074,-2.93446 0.316832,-5.8664 0.432617,-8.80468 0.07154,-0.93538 0.143086,-1.87076 0.216797,-2.83448 0.147278,-5.06395 0.147278,-5.06395 -2.404053,-9.23437 -2.397713,-1.64132 -4.859251,-2.96592 -7.437744,-4.30615 -2.177177,-1.28753 -4.350069,-2.58233 -6.519531,-3.88282 -1.799561,-1.0533 -3.602716,-2.10026 -5.406159,-3.14691 -3.247137,-1.88493 -6.488599,-3.77958 -9.73056,-5.6734 -0.641535,-0.3745 -1.28307,-0.749 -1.944046,-1.13486 -5.09297,-2.97567 -10.1609,-5.9911 -15.212204,-9.03701 -8.601941,-5.185 -17.235833,-10.31489 -25.875,-15.4375 -9.61912,-5.7045 -19.2283123,-11.424417 -28.8125001,-17.187504 -9.4801159,-5.700467 -18.9851639,-11.357778 -28.4999999,-17 -9.763553,-5.790112 -19.518245,-11.594035 -29.25,-17.4375 -0.999668,-0.600139 -1.999336,-1.200279 -3.029297,-1.818604 -4.894671,-2.94028 -9.785886,-5.886193 -14.673828,-8.837646 -0.936826,-0.56469 -1.873652,-1.12938 -2.838867,-1.711182 -1.762219,-1.062383 -3.523347,-2.126579 -5.283203,-3.192871 -1.153872,-0.695248 -1.153872,-0.695248 -2.331055,-1.404541 -0.673535,-0.407263 -1.34707,-0.814526 -2.041016,-1.234131 -3.546694,-1.97243 -6.886555,1.475708 -10.052735,3.261475 z m -21.5,28.875 c -2.55148,1.506041 -5.09023,3.028765 -7.625,4.5625 -0.71285,0.418301 -1.4257,0.836601 -2.16016,1.267578 -5.06376,3.089358 -10.84789,6.965504 -12.77174,12.882812 -0.56137,2.897586 -0.60778,5.65925 -0.64842,8.611573 -0.0199,1.288181 -0.0399,2.576361 -0.0604,3.903581 -0.017,1.41487 -0.0339,2.82974 -0.0506,4.24461 -0.0206,1.47986 -0.0416,2.95971 -0.063,4.43956 -0.044,3.12469 -0.0849,6.2494 -0.1233,9.37416 -0.0479,3.88995 -0.10184,7.77979 -0.15794,11.66963 -0.13253,9.23161 -0.235,18.46328 -0.31757,27.69546 -0.0221,2.37668 -0.047,4.75332 -0.0723,7.12997 -0.0404,3.92803 -0.0685,7.85599 -0.0883,11.78418 -0.009,1.46116 -0.0211,2.92231 -0.0373,4.38341 -0.98803,18.78943 -0.98803,18.78943 5.31275,35.51973 10.50397,8.63219 23.13469,14.74619 34.92238,21.4393 12.847744,7.29611 25.566751,14.80013 38.175276,22.5021 0.62306,0.38015 1.246121,0.7603 1.888061,1.15196 3.0578,1.86608 6.112858,3.73635 9.16272,5.61538 13.365555,8.91027 13.365555,8.91027 28.714844,11.82251 6.0552,-1.46588 11.558427,-4.09217 17,-7.0625 0.731462,-0.39357 1.462925,-0.78714 2.216553,-1.19263 7.223543,-3.92007 14.2891093,-8.09713 21.3488766,-12.30249 4.6911444,-2.77931 9.4092724,-5.51252 14.1220704,-8.25488 4.105207,-2.39406 8.209059,-4.79043 12.3125,-7.1875 0.961963,-0.56155 1.923926,-1.1231 2.915039,-1.70166 9.967752,-5.82623 19.896856,-11.7145 29.709961,-17.79834 0.78802,-0.48034 1.57604,-0.96068 2.387939,-1.45557 6.2562,-3.92332 9.502984,-7.41846 11.787842,-14.54053 0.66318,-3.81202 0.605465,-5.86143 -0.800781,-9.5039 -4.858747,-4.54101 -11.266572,-7.34346 -17.100586,-10.41846 -4.700487,-2.56397 -9.161191,-5.4792 -13.649414,-8.39404 -1.844086,-1.1825 -3.689153,-2.36347 -5.535156,-3.54297 -0.932154,-0.59603 -1.864307,-1.19206 -2.824707,-1.80616 -5.006891,-3.18481 -10.042339,-6.32373 -15.077637,-9.46337 -7.116795,-4.43864 -14.225544,-8.88887 -21.3125001,-13.375 -10.1141035,-6.40007 -20.2662999,-12.73876 -30.4194339,-19.07666 -5.028031,-3.13924 -10.054219,-6.28142 -15.080566,-9.42334 -1.999991,-1.25002 -3.999991,-2.50002 -6,-3.75 -4,-2.5 -8,-5 -12,-7.5 -0.990403,-0.619 -1.980806,-1.23799 -3.001221,-1.87574 -1.995967,-1.2475 -3.991898,-2.49506 -5.987793,-3.74267 -5.061395,-3.16374 -10.12346,-6.32639 -15.186767,-9.487063 -2.045616,-1.277275 -4.09119,-2.554618 -6.136719,-3.832031 -0.990564,-0.618509 -1.981128,-1.237017 -3.001709,-1.874268 -7.197696,-4.498188 -14.378092,-9.023206 -21.536622,-13.583496 -4.32034,-2.741913 -8.68646,-5.350692 -13.14917,-7.854736 z"
       fill="#fdfdfc"
       transform="translate(210.94629,43.788574)"
       id="path1-1" /><path
       d="m 0,0 c 2.0544434,1.0847168 2.0544434,1.0847168 4.0898437,2.4492188 0.7742432,0.51208 1.5484864,1.0241601 2.3461915,1.5517578 1.238225,0.8348291 1.238225,0.8348291 2.5014648,1.6865234 1.776617,1.1768797 3.55399,2.3526177 5.332031,3.5273438 1.393396,0.9240162 1.393396,0.9240162 2.814942,1.8666992 4.979285,3.276438 10.009471,6.47231 15.040527,9.668457 0.953826,0.608035 1.907651,1.216069 2.890381,1.842529 0.884377,0.562434 1.768755,1.124868 2.679931,1.704346 0.783912,0.498545 1.567823,0.99709 2.375489,1.510742 C 41.978928,27.026894 41.978928,27.026894 44,28 c 0,0.66 0,1.32 0,2 0.835312,0.232031 1.670625,0.464062 2.53125,0.703125 4.093217,1.530347 7.35782,3.621366 10.96875,6.046875 1.516293,0.99966 3.033254,1.998309 4.550781,2.996094 0.802603,0.529643 1.605205,1.059287 2.432129,1.60498 4.373219,2.864862 8.790021,5.660874 13.20459,8.461426 1.875038,1.191347 3.750037,2.382754 5.625,3.574219 0.938438,0.59603 1.876875,1.19206 2.84375,1.806152 2.824051,1.794611 5.646666,3.591457 8.46875,5.38916 8.55216,5.447526 17.1093,10.886527 25.6875,16.292969 8.4287,5.313785 16.82188,10.682285 25.21143,16.057617 9.56986,6.130901 19.15664,12.234903 28.74804,18.332033 2.81021,1.78763 5.61891,3.5776 8.42725,5.36816 9.18768,5.85607 18.37941,11.70266 27.64404,17.43653 4.55233,2.82625 4.55233,2.82625 5.65674,3.93066 0.31581,4.14617 0.357,8.2963 0.40503,12.45337 0.0215,1.39381 0.0554,2.78749 0.10254,4.18066 0.47485,14.17301 0.47485,14.17301 -4.73535,19.82373 -2.86504,2.49324 -5.79245,4.52863 -9.08472,6.41724 -0.70165,0.42015 -1.40331,0.84031 -2.12622,1.27319 -2.17835,1.29945 -4.36879,2.57642 -6.56128,3.85181 -1.26905,0.75252 -2.53731,1.50638 -3.80469,2.26172 -3.48511,2.06983 -6.98415,4.11511 -10.48584,6.15674 -5.10094,2.97746 -10.19432,5.96788 -15.28921,8.95569 -1.9194,1.12535 -3.83909,2.25019 -5.75888,3.37487 -5.89759,3.45531 -11.79258,6.91482 -17.67725,10.39209 -49.486284,29.21561 -49.486284,29.21561 -61.597411,26.21045 -4.929926,-1.66947 -9.398146,-3.83056 -13.875,-6.47656 -1.570924,-0.92825 -1.570924,-0.92825 -3.173584,-1.87524 -6.348231,-3.803 -12.666466,-7.65455 -18.978272,-11.51758 -7.605725,-4.65216 -15.26557,-9.18217 -23.020019,-13.58203 C 15.347221,207.05968 10.393401,204.1539 5.4375,201.25 c -6.10280043,-3.57417 -12.2107881,-7.13502 -18.371094,-10.60938 -0.938357,-0.53012 -1.876714,-1.06025 -2.843506,-1.60644 -1.754587,-0.9886 -3.51173,-1.97268 -5.271972,-2.95117 -18.405998,-10.37763 -18.405998,-10.37763 -21.858094,-19.47321 -1.859945,-6.67718 -2.509011,-12.74312 -2.420959,-19.65668 0.0013,-1.0577 0.0027,-2.1154 0.004,-3.20515 0.009,-3.49959 0.04061,-6.99853 0.0741,-10.49797 0.01475,-2.47517 0.02873,-4.95035 0.04199,-7.42554 0.03274,-5.36008 0.07745,-10.71991 0.129883,-16.07983 0.05916,-6.07842 0.09857,-12.156703 0.125,-18.235353 0.03183,-7.302185 0.07865,-14.604087 0.143452,-21.906057 0.0351,-3.968378 0.06457,-7.93659 0.07957,-11.9051 0.01496,-3.759847 0.04941,-7.519045 0.09816,-11.278601 0.01483,-1.386673 0.023,-2.773437 0.0239,-4.16019 0.01042,-8.414015 0.148391,-15.304235 6.033889,-21.843573 4.760005,-4.645346 10.922636,-7.761917 16.636658,-11.087631 2.587483,-1.5102139 5.120263,-3.0750165 7.625,-4.71875 0.869875,-0.5638843 0.869875,-0.5638843 1.757324,-1.1391602 C -10.96593,2.4342576 -9.3850451,1.3854727 -7.8047105,0.3359375 -4.4709916,-1.2519789 -3.4734975,-0.9915358 0,0 Z m -6,17 c -2.5514816,1.506041 -5.090232,3.028765 -7.625,4.5625 -0.712852,0.418301 -1.425703,0.836602 -2.160156,1.267578 -5.063761,3.089358 -10.847891,6.965504 -12.771744,12.882813 -0.561372,2.897585 -0.607777,5.65925 -0.648422,8.611572 -0.01994,1.288181 -0.03989,2.576363 -0.06044,3.90358 -0.01704,1.414869 -0.03392,2.82974 -0.05064,4.244613 -0.02065,1.479858 -0.04165,2.959712 -0.06297,4.43956 -0.04403,3.124689 -0.08488,6.249398 -0.123307,9.374161 -0.04793,3.889951 -0.101839,7.779786 -0.157938,11.669626 -0.132526,9.231607 -0.234992,18.46328 -0.317564,27.695467 -0.02207,2.37668 -0.04701,4.75331 -0.07229,7.12996 -0.04046,3.92803 -0.06853,7.85599 -0.0883,11.78418 -0.0088,1.46116 -0.02108,2.92231 -0.03725,4.38341 -0.988035,18.78944 -0.988035,18.78944 5.312746,35.51973 10.503969,8.63219 23.1346913,14.7462 34.922378,21.4393 12.847747,7.29612 25.566753,14.80013 38.175278,22.50211 0.62306,0.38014 1.246121,0.76029 1.888062,1.15196 3.057799,1.86608 6.112857,3.73635 9.162719,5.61537 C 72.650711,224.08777 72.650711,224.08777 88,227 c 6.0552,-1.46588 11.558427,-4.09217 17,-7.0625 0.73146,-0.39357 1.46292,-0.78713 2.21655,-1.19263 7.22355,-3.92007 14.28911,-8.09712 21.34888,-12.30249 4.69114,-2.77931 9.40927,-5.51251 14.12207,-8.25488 4.10521,-2.39405 8.20906,-4.79042 12.3125,-7.1875 0.96196,-0.56155 1.92393,-1.1231 2.91504,-1.70166 9.96775,-5.82622 19.89685,-11.7145 29.70996,-17.79834 0.78802,-0.48034 1.57604,-0.96067 2.38794,-1.45557 6.2562,-3.92332 9.50298,-7.41845 11.78784,-14.54052 0.66318,-3.81202 0.60547,-5.86143 -0.80078,-9.50391 -4.85875,-4.54101 -11.26657,-7.34346 -17.10059,-10.41846 -4.70048,-2.56397 -9.16119,-5.4792 -13.64941,-8.39404 -1.84409,-1.1825 -3.68915,-2.36347 -5.53516,-3.54297 -0.93215,-0.59603 -1.8643,-1.19206 -2.8247,-1.80615 C 156.88325,118.65356 151.8478,115.51464 146.8125,112.375 139.6957,107.93637 132.58696,103.48613 125.5,99 115.3859,92.599939 105.2337,86.26124 95.080566,79.92334 90.052535,76.784108 85.026347,73.641928 80,70.5 c -1.999991,-1.250015 -3.999991,-2.500015 -6,-3.75 -4,-2.5 -8,-5 -12,-7.5 -0.990403,-0.618992 -1.980806,-1.237983 -3.001221,-1.875732 -1.995967,-1.2475 -3.991898,-2.495059 -5.987793,-3.742676 C 47.949591,50.467858 42.887526,47.305204 37.824219,44.144531 35.778603,42.867257 33.733029,41.589914 31.6875,40.3125 30.696936,39.693992 29.706372,39.075483 28.685791,38.438232 21.488095,33.940044 14.307702,29.415026 7.1491699,24.854736 2.8288318,22.112823 -1.5372881,19.504045 -6,17 Z"
       fill="#bd9323"
       transform="translate(91,97)"
       id="path2-9" /><path
       d="m 0,0 c 2.4455994,1.3383267 4.8440703,2.73627 7.2370605,4.1665039 0.8967847,0.524165 1.7935694,1.0483301 2.7175293,1.5883789 1.9113552,1.1183197 3.8200772,2.2411494 5.7263182,3.3681641 2.922092,1.7256061 5.85266,3.4357761 8.786621,5.1411131 6.05414,3.519779 12.099651,7.054195 18.144532,10.589844 3.957657,2.313658 7.916028,4.626091 11.875,6.9375 0.976626,0.57041 1.953251,1.14082 2.959472,1.728516 6.46806,3.773298 12.952513,7.517199 19.44458,11.249023 22.542009,12.962341 22.542009,12.962341 28.720947,17.084961 0.84949,0.56332 1.69898,1.126641 2.57422,1.707031 4.307,4.07119 6.18651,7.9129 6.77385,13.755203 0.11475,4.289352 0.10233,8.560621 0.0426,12.850266 -0.007,1.580396 -0.0132,3.160802 -0.0172,4.741211 -0.0152,4.136435 -0.0544,8.272295 -0.0988,12.408505 -0.0411,4.22997 -0.0592,8.46002 -0.0793,12.69013 -0.0428,8.28281 -0.11092,16.56516 -0.19531,24.84765 -14.778264,-8.43017 -14.778264,-8.43017 -21.183593,-12.18359 -0.588301,-0.34467 -1.176602,-0.68934 -1.78273,-1.04445 -1.218885,-0.71438 -2.437551,-1.42913 -3.655991,-2.14427 -1.810769,-1.06259 -3.622499,-2.12354 -5.434326,-3.18433 -6.781242,-3.9744 -13.537286,-7.98842 -20.273209,-12.03914 C 55.949138,110.4509 49.59371,106.68168 43.236816,102.91431 32.845301,96.755009 22.464383,90.57903 12.112061,84.354004 c -9.480114,-5.700471 -18.9851645,-11.357778 -28.5,-17 -12.729024,-7.548734 -25.432035,-15.139251 -38.114747,-22.765625 -4.814019,-2.893789 -9.631017,-5.782611 -14.447753,-8.671875 -1.64715,-0.988259 -3.294286,-1.976537 -4.941407,-2.964844 -0.678772,-0.407263 -1.357544,-0.814526 -2.056884,-1.234131 -0.474939,-0.284963 -0.949878,-0.569926 -1.439209,-0.863525 1.50582,-4.360918 4.287072,-5.583409 8.230468,-7.707031 1.276218,-0.700838 2.551417,-1.403533 3.825684,-2.107911 0.654824,-0.359507 1.309647,-0.719014 1.984314,-1.089416 3.092604,-1.729181 6.114255,-3.569315 9.135315,-5.419861 0.588366,-0.358933 1.176733,-0.717867 1.782928,-1.087677 1.785635,-1.090182 3.569902,-2.182568 5.353791,-3.275604 C -17.089153,-8.2012561 -17.089153,-8.2012561 0,0 Z m -37.450439,23.916504 c -0.770215,0.433769 -1.54043,0.867539 -2.333985,1.314453 -0.726387,0.423457 -1.452773,0.846914 -2.201172,1.283203 -0.654924,0.377776 -1.309848,0.755552 -1.984619,1.144776 -0.701774,0.591558 -0.701774,0.591558 -1.417724,1.195068 0,0.99 0,1.98 0,3 2.017973,1.4667 3.961408,2.695177 6.121093,3.921875 0.963217,0.564904 0.963217,0.564904 1.945893,1.14122 2.11774,1.239158 4.244049,2.462789 6.370514,3.686905 1.473607,0.859221 2.946502,1.719665 4.418701,2.581299 2.976879,1.741491 5.956377,3.478362 8.937744,5.212158 5.706803,3.325182 11.3636747,6.731377 17.01855455,10.144043 C 10.653482,65.294385 21.923464,71.976768 33.20015,78.64949 c 6.462727,3.824957 12.919304,7.660256 19.37593,11.495499 2.021673,1.200519 4.043773,2.400315 6.06601,3.599884 5.995967,3.557307 11.989866,7.117817 17.971863,10.698577 2.525379,1.51116 5.052638,3.01916 7.580139,4.52676 1.187475,0.70951 2.374013,1.4206 3.55957,2.13331 1.624937,0.97672 3.253296,1.94775 4.881836,2.91845 0.917007,0.54938 1.834014,1.09877 2.778809,1.6648 2.077396,1.32359 2.077396,1.32359 4.197754,1.16723 0.07463,-4.28666 0.128825,-8.57298 0.164794,-12.8601 0.01501,-1.4558 0.03542,-2.91155 0.06152,-4.367191 0.03674,-2.102733 0.05349,-4.204864 0.06665,-6.307861 0.01571,-1.262073 0.03142,-2.524146 0.04761,-3.824463 -0.627809,-6.71058 -3.19276,-11.201819 -8.340576,-15.640381 -2.434385,-1.767725 -2.434385,-1.767725 -5.1875,-3.375 C 85.886135,70.154321 85.34771,69.829639 84.792969,69.495117 76.407553,64.479311 67.907677,59.652063 59.436279,54.783691 53.146068,51.166709 46.875953,47.516325 40.612061,43.854004 c -3.999312,-2.334514 -7.999545,-4.667446 -12,-7 -1.115684,-0.650977 -2.231368,-1.301953 -3.38086,-1.972656 -3.45356,-2.013989 -6.911243,-4.020812 -10.36914,-6.027344 C 13.815342,28.242988 12.768623,27.631973 11.690186,27.002441 -8.0640694,15.563115 -17.42676,12.211163 -37.450439,23.916504 Z"
       fill="#5d3a0a"
       transform="translate(192.38794,51.145996)"
       id="path3-0" /></g></svg>
