<?xml version="1.0" encoding="UTF-8" standalone="no"?>
<svg
   width="545.56323"
   height="523.50055"
   viewBox="0 0 545.56323 523.50056"
   version="1.1"
   id="svg32"
   sodipodi:docname="exchange-dolar.svg"
   xml:space="preserve"
   inkscape:version="1.3.2 (091e20e, 2023-11-25, custom)"
   xmlns:inkscape="http://www.inkscape.org/namespaces/inkscape"
   xmlns:sodipodi="http://sodipodi.sourceforge.net/DTD/sodipodi-0.dtd"
   xmlns="http://www.w3.org/2000/svg"
   xmlns:svg="http://www.w3.org/2000/svg"><defs
     id="defs32" /><sodipodi:namedview
     id="namedview32"
     pagecolor="#505050"
     bordercolor="#eeeeee"
     borderopacity="1"
     inkscape:showpageshadow="0"
     inkscape:pageopacity="0"
     inkscape:pagecheckerboard="0"
     inkscape:deskcolor="#505050"
     inkscape:zoom="1.4773723"
     inkscape:cx="272.78162"
     inkscape:cy="261.61314"
     inkscape:window-width="1920"
     inkscape:window-height="1017"
     inkscape:window-x="-8"
     inkscape:window-y="-8"
     inkscape:window-maximized="1"
     inkscape:current-layer="svg32" /><path
     d="m 491.30435,507.16761 c 2.06592,0.12937 3.20768,-2.43737 1.64468,-3.93333 l -0.1555,-0.61819 c 0.0205,-0.0495 0.0411,-0.099 0.0618,-0.14839 2.08924,-4.9818 9.16992,-4.94742 11.24139,0.0418 1.83859,4.42817 4.17942,8.86389 4.75579,13.54594 0.25838,2.0668 0.14213,4.17236 -0.31648,6.20047 4.30807,-9.41059 6.57515,-19.68661 6.57515,-30.02077 0,-2.59652 -0.14213,-5.19301 -0.43275,-7.78295 -0.239,-2.11854 -0.56839,-4.2241 -0.99471,-6.31034 -2.30575,-11.2772 -7.29852,-22.01825 -14.50012,-30.98962 -3.46197,-1.89248 -6.34906,-4.85065 -8.09295,-8.39652 -0.62649,-1.27891 -1.11739,-2.65462 -1.34991,-4.05618 0.39398,0.0517 1.48556,-5.94866 1.18841,-6.3168 0.54906,-0.83317 1.53178,-1.24733 2.13144,-2.06034 2.98232,-4.04341 7.0912,-3.33741 9.23621,2.15727 4.58224,2.31266 4.62659,6.14806 1.81495,9.83683 -1.78878,2.34682 -2.03456,5.52233 -3.60408,8.03478 0.16151,0.20671 0.32944,0.40695 0.4909,0.61366 2.96106,3.79788 5.52208,7.88002 7.68104,12.16859 -0.61017,-4.76621 0.29067,-10.50822 1.82641,-14.20959 1.74819,-4.21732 5.02491,-7.76915 7.91045,-11.41501 3.46601,-4.37924 10.57337,-2.46806 11.18401,3.08332 0.006,0.0537 0.0117,0.10745 0.0173,0.1612 -0.4286,0.24178 -0.84849,0.49867 -1.25864,0.76992 -2.33949,1.54723 -1.53096,5.17386 1.24107,5.60174 l 0.0628,0.01 c -0.15503,1.54366 -0.41984,3.07444 -0.80734,4.57937 3.70179,14.31579 -4.29011,19.5299 -15.70147,19.76412 -0.25191,0.12916 -0.49738,0.25832 -0.74929,0.38109 1.15617,3.25525 2.07982,6.59447 2.76441,9.97891 0.61359,2.99043 1.03991,6.01317 1.27885,9.04888 0.29715,3.83006 0.27129,7.67959 -0.0517,11.50323 l 0.0194,-0.13562 c 0.82024,-4.21115 3.10671,-8.14462 6.4266,-10.87028 4.94561,-4.06264 11.93282,-5.55869 17.26826,-8.82425 2.56833,-1.57196 5.85945,0.45945 5.41121,3.43708 l -0.0218,0.14261 c -0.79443,0.32289 -1.56947,0.69755 -2.31871,1.11733 -0.4286,0.24184 -0.84848,0.49867 -1.25864,0.76992 -2.33949,1.54729 -1.53096,5.17392 1.24107,5.6018 l 0.0628,0.01 c 0.0452,0.006 0.084,0.0129 0.12911,0.0194 -1.36282,3.23581 -3.26168,6.23922 -5.63854,8.82922 -2.31463,12.49713 -12.25603,13.68282 -22.89022,10.04354 h -0.006 c -1.16259,5.06378 -2.86128,10.01127 -5.0444,14.72621 h -18.02019 c -0.0646,-0.20022 -0.12274,-0.40692 -0.18089,-0.60717 1.6664,0.10341 3.34571,0.006 4.98629,-0.29702 -1.33701,-1.64059 -2.67396,-3.29409 -4.01097,-4.93462 -0.0323,-0.0323 -0.0582,-0.0646 -0.084,-0.0969 -0.67817,-0.8396 -1.36282,-1.67283 -2.04099,-2.51246 l -3.6e-4,-10e-4 c -0.0425,-2.57755 0.26652,-5.14662 0.87876,-7.63984 l 5.7e-4,-3.5e-4 z"
     fill="#f2f2f2"
     id="path1" /><path
     d="m 159.753,522.31056 c 0,0.66003 0.53003,1.19 1.19006,1.19 h 383.28998 c 0.65997,0 1.19,-0.52997 1.19,-1.19 0,-0.65997 -0.53003,-1.19 -1.19,-1.19 H 160.94307 c -0.66003,0 -1.19006,0.53003 -1.19006,1.19 z"
     fill="#cccccc"
     id="path2" /><g
     id="g10"><path
       d="M 217.91365,522.99361 H 41.48886 c -21.51191,0 -39.01333,-17.50142 -39.01333,-39.01374 V 104.83075 c 0,-21.51191 17.50142,-39.01333 39.01333,-39.01333 h 176.42479 c 21.51151,0 39.01293,17.50142 39.01293,39.01333 v 379.14912 c 0,21.51232 -17.50142,39.01374 -39.01293,39.01374 z"
       fill="#3f3d56"
       id="path3" /><path
       d="m 256.92674,205.28092 c -0.91025,0 -1.65045,0.74021 -1.65045,1.65045 v 52.81453 c 0,0.91025 0.74021,1.65045 1.65045,1.65045 0.91024,0 1.65045,-0.74021 1.65045,-1.65045 v -52.81453 c 0,-0.91025 -0.74021,-1.65045 -1.65045,-1.65045 z"
       fill="#3f3d56"
       id="path4" /><path
       d="m 253.21342,104.83104 v 379.14232 c 0,18.7244 -14.57349,34.04062 -33.00082,35.22894 h -0.008 c -0.27234,0.0165 -0.54463,0.033 -0.82523,0.0413 -0.48691,0.0247 -0.97376,0.033 -1.46888,0.033 0,0 -1.81551,-0.13206 -5.13294,-0.37962 -3.35042,-0.24756 -8.22749,-0.61892 -14.30946,-1.10578 -1.82372,-0.14032 -3.74651,-0.29712 -5.77659,-0.46213 -4.04358,-0.33011 -8.48331,-0.69321 -13.24488,-1.10583 -1.89801,-0.1568 -3.86206,-0.33006 -5.86735,-0.50338 -10.24931,-0.883 -21.72824,-1.91453 -33.83431,-3.08634 -2.04655,-0.18984 -4.10961,-0.38788 -6.1892,-0.59419 -0.54463,-0.0578 -1.09757,-0.10728 -1.65045,-0.16506 C 123.27316,511.0243 6.18941,488.39659 6.18941,483.97334 v -379.1423 c 0,-19.50007 15.80312,-35.30319 35.30324,-35.30319 h 21.07628 c 3.36694,0 6.07366,2.62422 6.36252,5.9829 0.02473,0.22283 0.04951,0.4456 0.09076,0.66843 0.61066,3.3752 3.70526,5.72708 7.13818,5.72708 h 107.08205 c 3.43292,0 6.52752,-2.35188 7.13818,-5.72708 0.0413,-0.22283 0.066,-0.4456 0.0908,-0.66843 0.28881,-3.35868 2.99553,-5.9829 6.36247,-5.9829 h 21.07633 c 19.50007,0 35.30319,15.80312 35.30319,35.30319 z"
       fill="#ffffff"
       id="path5" /><path
       d="M 1.65045,165.67002 C 0.7402,165.67002 0,166.41023 0,167.32047 v 13.20363 c 0,0.91025 0.74021,1.65045 1.65045,1.65045 0.91024,0 1.65045,-0.74021 1.65045,-1.65045 v -13.20363 c 0,-0.91025 -0.74021,-1.65045 -1.65045,-1.65045 z"
       fill="#3f3d56"
       id="path6" /><path
       d="M 1.65045,205.28092 C 0.7402,205.28092 0,206.02113 0,206.93137 v 25.58204 c 0,0.91025 0.74021,1.65045 1.65045,1.65045 0.91024,0 1.65045,-0.74021 1.65045,-1.65045 v -25.58204 c 0,-0.91025 -0.74021,-1.65045 -1.65045,-1.65045 z"
       fill="#3f3d56"
       id="path7" /><path
       d="M 1.65045,241.59091 C 0.7402,241.59091 0,242.33112 0,243.24136 v 25.58204 c 0,0.91025 0.74021,1.65045 1.65045,1.65045 0.91024,0 1.65045,-0.74021 1.65045,-1.65045 v -25.58204 c 0,-0.91025 -0.74021,-1.65045 -1.65045,-1.65045 z"
       fill="#3f3d56"
       id="path8" /><rect
       x="30.12079"
       y="75.307663"
       width="32.183849"
       height="4.1261401"
       rx="0.31020999"
       ry="0.31020999"
       fill="#e6e6e6"
       id="rect8" /><circle
       cx="202.04913"
       cy="76.132889"
       r="3.30091"
       fill="#e6e6e6"
       id="circle8" /><circle
       cx="211.12663"
       cy="76.132889"
       r="3.30091"
       fill="#e6e6e6"
       id="circle9" /><circle
       cx="220.20415"
       cy="76.132889"
       r="3.30091"
       fill="#e6e6e6"
       id="circle10" /></g><path
     d="m 199.2886,298.51575 h -140 c -2.20557,0 -4,-1.79443 -4,-4 0,-2.20557 1.79443,-4 4,-4 h 140 c 2.20557,0 4,1.79443 4,4 0,2.20557 -1.79443,4 -4,4 z"
     fill="#e6e6e6"
     id="path10" /><circle
     cx="129.79071"
     cy="396.19263"
     r="58"
     fill="#d8d1d1"
     id="circle11" /><path
     d="M 437.08565,0 H 151.12569 C 140.6357,0 132.10567,8.52997 132.10567,19.01996 v 195.96002 c 0,10.48999 8.53003,19.02002 19.02002,19.02002 h 285.95996 c 10.48999,0 19.02002,-8.53003 19.02002,-19.02002 V 19.01996 C 456.10567,8.52997 447.57564,0 437.08565,0 Z"
     fill="#ffffff"
     id="path13" /><circle
     cx="292.79071"
     cy="84.515747"
     r="32"
     fill="#d8d1d1"
     id="circle13" /><path
     d="m 298.86106,70.23584 c -3.96096,0.16324 -8.42022,0.41435 -11.41661,3.36215 -2.48204,2.4418 -3.34997,6.24304 -1.06925,9.11803 2.40131,3.02702 6.39485,3.6014 9.52957,5.53579 1.94826,1.20224 3.23934,3.0236 3.28121,5.36426 0.0392,2.19141 -0.97209,4.23876 -2.6628,5.61221 -4.1481,3.36971 -9.80485,1.97481 -13.72914,-0.97221 -0.77211,-0.57983 -1.52056,0.72186 -0.75708,1.29521 3.25012,2.44074 7.43474,3.8583 11.47885,2.80815 3.72256,-0.96665 6.72131,-3.89507 7.12458,-7.80812 0.42504,-4.12426 -2.28291,-6.93249 -5.79432,-8.54355 -3.2096,-1.47258 -8.83914,-3.04159 -8.30843,-7.61645 0.67475,-5.81661 7.79544,-6.46889 12.32342,-6.6555 0.96183,-0.03964 0.96686,-1.53985 0,-1.5 v 0 z"
     fill="#ffffff"
     id="path14" /><path
     d="m 291.97743,67.51575 -0.17986,41.15818 c -0.004,0.96534 1.49578,0.96658 1.5,0 l 0.17986,-41.15818 c 0.004,-0.96534 -1.49578,-0.96658 -1.5,0 z"
     fill="#ffffff"
     id="path15" /><path
     d="M 437.08565,0 H 151.12569 C 140.6357,0 132.10567,8.52997 132.10567,19.01996 v 195.96002 c 0,10.48999 8.53003,19.02002 19.02002,19.02002 h 285.95996 c 10.48999,0 19.02002,-8.53003 19.02002,-19.02002 V 19.01996 C 456.10567,8.52997 447.57564,0 437.08565,0 Z m 17.02002,214.97998 c 0,9.39001 -7.63,17.02002 -17.02002,17.02002 H 151.12569 c -9.39001,0 -17.02002,-7.63 -17.02002,-17.02002 V 19.01996 C 134.10567,9.63001 141.73567,2 151.12569,2 h 285.95996 c 9.39001,0 17.02002,7.63 17.02002,17.01996 z"
     fill="#3f3d56"
     id="path16" /><g
     id="g19"><path
       d="m 261.1357,19.34998 h -28.06006 c -1.40997,0 -2.56,1.15002 -2.56,2.56 0,1.41998 1.15002,2.57001 2.56,2.57001 h 28.06006 c 1.40997,0 2.56,-1.15002 2.56,-2.57001 0,-1.40997 -1.15002,-2.56 -2.56,-2.56 z"
       fill="#e6e6e6"
       id="path17" /><path
       d="m 308.1357,19.34998 h -28.06006 c -1.40997,0 -2.56,1.15002 -2.56,2.56 0,1.41998 1.15002,2.57001 2.56,2.57001 h 28.06006 c 1.40997,0 2.56,-1.15002 2.56,-2.57001 0,-1.40997 -1.15002,-2.56 -2.56,-2.56 z"
       fill="#e6e6e6"
       id="path18" /><path
       d="m 355.1357,19.34998 h -28.06006 c -1.40997,0 -2.56,1.15002 -2.56,2.56 0,1.41998 1.15002,2.57001 2.56,2.57001 h 28.06006 c 1.40997,0 2.56,-1.15002 2.56,-2.57001 0,-1.40997 -1.15002,-2.56 -2.56,-2.56 z"
       fill="#e6e6e6"
       id="path19" /></g><path
     d="m 401.41567,134.51575 h -214.62 c -8.92999,0 -16.19,7.26001 -16.19,16.19 v 14.62 c 0,8.92999 7.26001,16.19 16.19,16.19 h 214.62 c 8.92999,0 16.19,-7.26001 16.19,-16.19 v -14.62 c 0,-8.92999 -7.26001,-16.19 -16.19,-16.19 z"
     fill="#d8d1d1"
     id="path20" /><path
     d="m 73.17926,211.49182 -8.22992,-3.89856 c 3.37555,4.71082 6.28418,12.06805 7.84137,17.92249 2.63654,-5.45343 6.88672,-12.1261 11.09375,-16.11194 l -8.69812,2.23767 c 5.35974,-26.26794 25.5191,-45.12573 48.60437,-45.12573 v -2 c -24.11316,0 -45.13898,19.64758 -50.61145,46.97607 z"
     fill="#3f3d56"
     id="path21" /><path
     d="m 111.05843,251.51575 h -52 c -2.20557,0 -4,-1.79443 -4,-4 0,-2.20557 1.79443,-4 4,-4 h 52 c 2.20557,0 4,1.79443 4,4 0,2.20557 -1.79443,4 -4,4 z"
     fill="#e6e6e6"
     id="path22" /><g
     id="g32"><polygon
       points="446.29273,315.73235 438.16969,312.70231 441.77632,279.33303 441.30222,234.1757 456.97872,238.488 456.45423,279.32691 "
       fill="#ffb6b6"
       id="polygon22" /><ellipse
       cx="440.63007"
       cy="320.57803"
       rx="9.6343298"
       ry="5.7203798"
       transform="rotate(-79.68097,440.63007,320.57804)"
       fill="#ffb6b6"
       id="ellipse22" /><path
       d="m 444.64807,189.86134 c 0,0 17.40715,0.23962 17.39246,9.48652 -0.008,5.22083 -1.1295,52.62318 -4.24981,81.41974 -2.40625,22.20666 -7,28 -7,28 l -11,-25 z"
       fill="#e6e6e6"
       id="path23" /><path
       d="m 444.20053,273.29856 h -58.7876 c 4.92749,-10.99533 7.95685,-21.46701 3.22119,-29.79648 l 55.56641,-3.22122 c -2.77679,11.24445 -3.11621,22.27954 0,33.0177 z"
       fill="#ffb6b6"
       id="path24" /><path
       d="m 436.95273,175.85608 -23.35398,-1.61062 -9.66372,12.07965 -4.89907,0.89074 c -7.34381,1.33524 -12.5732,7.8888 -12.24512,15.3458 l 1.9056,43.31268 55.82064,4.07026 13.3737,-56.40211 -16.10619,-6.41205 -4.83186,-11.27434 z"
       fill="#e6e6e6"
       id="path25" /><g
       id="g27"><path
         d="m 294.53066,188.92176 c 1.65693,1.49058 2.83981,3.2318 3.46456,4.92062 l 16.68132,13.2027 -6.51458,7.75386 -16.22013,-14.22767 c -1.74528,-0.44324 -3.60149,-1.436 -5.25841,-2.92658 -3.78524,-3.40522 -5.0971,-8.11837 -2.93014,-10.52715 2.16696,-2.40878 6.99213,-1.60101 10.77736,1.8042 v 0 z"
         fill="#ffb6b6"
         id="path26" /><path
         d="m 412.46752,200.03661 v 3e-5 l -63.91645,43.15944 -45.81651,-31.88401 6.87858,-12.45997 36.05991,20.95662 33.25501,-25.53436 c 11.84186,-11.12319 26.6836,-8.96705 33.53945,5.76225 z"
         fill="#e6e6e6"
         id="path27" /></g><circle
       cx="423.89066"
       cy="153.30238"
       r="17.325951"
       fill="#ffb6b6"
       id="circle27" /><path
       d="m 447.44074,149.04572 v 3.36005 l -19.54004,-5.5 -14.64996,3.06995 c -0.17004,-2.22998 -0.83002,-4.41998 -1.92999,-6.35999 0.76544,3.11154 0.85107,5.51877 0.04,6.76001 l -1.97003,0.40997 c -0.31995,-0.87 -0.94,-1.62994 -1.75,-2.08997 -0.08,-0.05 -0.17999,-0.09 -0.26996,-0.06 -0.14001,0.05 -0.15002,0.22998 -0.15002,0.37 0.02,0.73999 0.04,1.47998 0.07,2.21997 l -5.65997,1.18005 v -3.36005 c -5.43011,-12.21786 8.88177,-22.79028 22.90997,-22.89996 6.32983,-0.0495 12.04999,2.56 16.20001,6.69995 4.14001,4.15002 6.70001,9.87006 6.70001,16.20001 z"
       fill="#2f2e41"
       id="path28" /><path
       d="m 458.43313,188.44404 -1.4756,-0.12217 c 0.10507,-0.48251 0.21013,-0.95895 0.30608,-1.44147 0.81774,-4.04957 -0.9822,-9.20467 -1.1147,-13.09543 -0.69441,4.11063 0.4934,9.16803 -0.73551,13.07098 -0.13705,0.43368 -5.4765,3.23228 -5.62268,3.6598 -5.90945,-2.16102 -12.06314,-9.06597 -19.03157,-5.03298 -4.12132,2.38522 -8.82359,1.33977 -13.50285,0.24763 -1.15832,-0.27035 -1.31925,-5.9899 -2.46558,-6.21465 -2.05278,-0.40246 -5.06763,4.79685 -7,5 l 8,-31 c 0,-16.86402 -1.56207,-34.55742 19.80018,-28.59431 5.37269,1.49975 10.69018,2.67528 14.65559,7.10965 3.96541,4.44045 6.78871,10.64614 7.7892,17.71303 0.60304,4.26333 4.36744,18.73916 0.39745,38.69992 z"
       fill="#2f2e41"
       id="path29" /><g
       id="g30"><polygon
         points="429.78582,457.56122 443.85939,457.22818 444.63823,500.18039 435.10166,500.40544 "
         fill="#ffb7b7"
         id="polygon29" /><path
         d="m 411.91948,520.07655 v 0 c 0,1.61103 1.14328,2.91706 2.55362,2.91706 h 18.92928 c 0,0 1.86279,-7.48795 9.4577,-10.71043 l 0.52418,10.71043 h 9.76495 l -1.18313,-17.22188 c 0,0 2.61217,-9.21376 -2.81276,-13.92358 -5.42499,-4.70982 -1.03095,-4.05417 -1.03095,-4.05417 l -2.13409,-10.65904 -14.7559,1.7352 -0.1085,16.7322 -7.16093,16.60827 -10.50335,5.18849 c -0.93485,0.46179 -1.54002,1.51399 -1.54002,2.67743 l -1.2e-4,3e-5 z"
         fill="#2f2e41"
         id="path30" /></g><g
       id="g31"><polygon
         points="390.44322,455.74315 403.97162,451.84972 415.62444,493.19838 406.45713,495.83604 "
         fill="#ffb7b7"
         id="polygon30" /><path
         d="m 389.02547,520.74594 v 0 c 0.40881,1.5583 1.84609,2.53146 3.21026,2.17358 l 18.30968,-4.80346 c 0,0 -0.0983,-7.71555 6.43027,-12.75982 l 3.22488,10.22684 9.44532,-2.47794 -5.5146,-16.35794 c 0,0 0.1886,-9.57504 -6.25391,-12.75407 -6.44257,-3.17902 -2.02599,-3.65986 -2.02599,-3.65986 l -4.76906,-9.7686 -13.83258,5.42284 4.14099,16.21205 -2.71205,17.88179 -8.84293,7.68397 c -0.78707,0.6839 -1.10542,1.85522 -0.81019,2.98058 l -1.1e-4,6e-5 z"
         fill="#2f2e41"
         id="path31" /></g><path
       d="m 438.79071,270.7676 6,2 c 9.38098,17.32587 13.35828,40.3338 12.83124,68.07819 l -10.65781,124.61142 h -17.43665 l -12.76045,-138.82181 -22.4998,52.1048 16.46225,86.71701 -16.46225,1.67839 -33.1576,-90.1717 23.0919,-104.8017 54.58918,-1.3946 z"
       fill="#2f2e41"
       id="path32" /></g><g
     id="g1"
     transform="matrix(0.27185835,0,0,0.24359455,81.510527,349.04964)"><path
       d="M 0,0 C 3.0805075,1.8171039 6.1924757,3.5778265 9.3022461,5.3442383 20.000514,11.422302 30.630642,17.615125 41.25293,23.824707 c 5.237344,3.060808 10.48564,6.102258 15.738281,9.136719 7.345177,4.246744 14.676461,8.515997 21.976562,12.839844 2.732673,1.618322 5.47792,3.21162 8.234375,4.789062 11.655241,6.719999 18.799812,12.754384 23.851562,25.621094 0.79785,3.989701 1.12822,7.777706 1.14044,11.841827 0.006,1.143645 0.0114,2.287291 0.0173,3.465592 0.001,1.240627 0.002,2.481254 0.003,3.759475 0.005,1.31784 0.01,2.63568 0.0151,3.993454 0.0131,3.605706 0.0196,7.211396 0.024,10.817126 0.003,2.25782 0.007,4.51564 0.0115,6.77346 0.0137,7.07893 0.0233,14.15784 0.0272,21.23678 0.004,8.14387 0.022,16.28757 0.051,24.43138 0.0217,6.31279 0.0317,12.62553 0.033,18.93835 0.001,3.76185 0.007,7.52354 0.0248,11.28535 0.0166,3.54431 0.0186,7.08834 0.01,10.63268 -0.001,1.90133 0.0125,3.80266 0.0267,5.70394 -0.0528,11.00436 -1.24427,21.15968 -8.71249,29.6909 -4.988879,4.53667 -10.705825,7.84482 -16.530766,11.19726 -2.049085,1.17945 -4.083198,2.38081 -6.113769,3.5918 -4.326861,2.57379 -8.676443,5.10776 -13.027344,7.64063 -1.937598,1.13004 -3.875092,2.26026 -5.8125,3.39062 -3.104835,1.81138 -6.20987,3.62241 -9.315674,5.43213 -5.863203,3.41722 -11.716273,6.85072 -17.559326,10.30225 -8.075918,4.76511 -16.215008,9.41759 -24.367188,14.05078 -2.9572258,1.68236 -5.902476,3.38052 -8.8281246,5.11718 -3.3411798,1.96742 -6.7089522,3.85843 -10.1171875,5.70704 -0.6002197,0.33435 -1.2004394,0.6687 -1.8188476,1.01318 -11.4721173,6.25671 -23.3875153,8.6505 -36.3061523,5.4624 -4.929449,-1.57656 -9.392125,-3.91735 -13.875,-6.47558 -0.762481,-0.43426 -1.524961,-0.86851 -2.310547,-1.31592 -5.104648,-2.94618 -10.131712,-6.00994 -15.142578,-9.11231 -4.078212,-2.51682 -8.186685,-4.98263 -12.296875,-7.44677 -0.811465,-0.48727 -1.62293,-0.97454 -2.458984,-1.47657 -13.177337,-7.89614 -26.420647,-15.69414 -39.853517,-23.14843 -6.72064,-3.74929 -13.34074,-7.66226 -19.9375,-11.625 -0.96817,-0.57428 -1.93633,-1.14856 -2.93384,-1.74024 -11.18452,-6.7718 -19.95651,-14.0442 -23.71362,-27.02612 -2.33151,-9.86623 -1.74087,-20.08692 -1.68066,-30.15943 0.003,-2.2627 0.005,-4.52542 0.006,-6.78813 0.005,-4.74151 0.019,-9.48285 0.0412,-14.22432 0.028,-5.98157 0.0391,-11.96301 0.0438,-17.94464 0.0175,-20.42803 0.0588,-40.86235 0.56553,-61.285093 0.0322,-1.795742 0.0322,-1.795742 0.0651,-3.627762 0.34207,-10.894598 2.77836,-19.250876 10.60675,-27.079269 9.02644,-7.342207 19.43292,-12.862207 29.51953,-18.588379 4.04749,-2.303401 8.0763,-4.638883 12.10547,-6.974121 0.79277,-0.459068 1.58555,-0.918135 2.40234,-1.391114 17.97872,-10.417468 35.799498,-21.095986 53.589848,-31.8315425 3.453957,-2.08351839 6.91526,-4.1540243 10.382813,-6.2148437 0.853359,-0.5104688 1.706719,-1.0209375 2.585937,-1.546875 2.110138,-1.2243118 4.229857,-2.3674086 6.414063,-3.453125 0.630352,-0.3183985 1.260703,-0.6367969 1.910156,-0.9648438 C -32.365136,-17.141869 -15.137456,-9.0181415 0,0 Z m -56.008789,31.273926 c -0.770215,0.433769 -1.54043,0.867539 -2.333984,1.314453 -0.726387,0.423457 -1.452774,0.846914 -2.201172,1.283203 -0.654925,0.377776 -1.309849,0.755552 -1.984619,1.144775 -0.701774,0.591559 -0.701774,0.591559 -1.417725,1.195069 0,0.99 0,1.98 0,3 2.017973,1.4667 3.961408,2.695177 6.121094,3.921875 0.963216,0.564904 0.963216,0.564904 1.945892,1.14122 2.11774,1.239158 4.24405,2.462789 6.370514,3.686905 1.473607,0.859221 2.946503,1.719665 4.418701,2.581299 2.976879,1.741491 5.956378,3.478362 8.937744,5.212158 5.706804,3.325182 11.363675,6.731377 17.018555,10.144043 11.2289217,6.752881 22.4989031,13.435264 33.775589,20.107986 6.462727,3.824957 12.919305,7.660256 19.375931,11.495499 2.021673,1.200519 4.043772,2.400315 6.066009,3.599879 5.995968,3.55731 11.989866,7.11782 17.971863,10.69858 2.525379,1.51116 5.052639,3.01916 7.580139,4.52677 1.187475,0.70951 2.374014,1.42059 3.55957,2.1333 1.624937,0.97672 3.253297,1.94775 4.881836,2.91845 0.917007,0.54939 1.834014,1.09877 2.778809,1.6648 2.077396,1.32359 2.077396,1.32359 4.197754,1.16724 0.07463,-4.28667 0.128825,-8.57299 0.164795,-12.86011 0.01501,-1.4558 0.03542,-2.91155 0.06152,-4.36719 0.03674,-2.10273 0.05349,-4.20486 0.06665,-6.30786 0.01571,-1.262073 0.03142,-2.524146 0.04761,-3.824463 -0.627809,-6.71058 -3.192759,-11.201819 -8.340576,-15.640381 -2.434384,-1.767725 -2.434384,-1.767725 -5.1875,-3.375 C 67.327786,77.511743 66.78936,77.187061 66.234619,76.852539 57.849204,71.836733 49.349328,67.009485 40.87793,62.141113 34.587719,58.524131 28.317603,54.873746 22.053711,51.211426 c -3.999312,-2.334514 -7.999545,-4.667446 -12,-7 C 8.9380273,43.560449 7.8223437,42.909473 6.6728516,42.23877 3.2192918,40.224781 -0.2383918,38.217958 -3.6962891,36.211426 -4.7430078,35.60041 -5.7897266,34.989395 -6.8681641,34.359863 -26.622419,22.920537 -35.98511,19.568585 -56.008789,31.273926 Z m -48.437501,10.0625 c -0.72381,0.407263 -1.44762,0.814526 -2.19336,1.234131 -5.26248,2.987527 -10.36598,6.141237 -15.30664,9.640869 3.96021,3.29891 8.10343,6.106167 12.4375,8.875 1.081,0.693797 1.081,0.693797 2.18384,1.401611 1.58504,1.016321 3.17094,2.031313 4.75757,3.045166 2.857513,1.829598 5.708047,3.669814 8.558591,5.510254 1.999772,1.28551 3.99977,2.570671 6,3.855469 0.965427,0.624389 1.930854,1.248779 2.925537,1.89209 1.349769,0.863591 1.349769,0.863591 2.726807,1.744629 0.803005,0.516511 1.60601,1.033022 2.433349,1.565185 1.889514,1.273865 1.889514,1.273865 3.976807,1.110596 0,0.66 0,1.32 0,2 0.778594,0.426679 1.557187,0.853359 2.359375,1.292969 9.017215,5.038421 17.657834,10.546988 26.292969,16.210935 5.440116,3.56698 10.919278,7.0704 16.410156,10.5586 0.924499,0.58749 1.848999,1.17498 2.801514,1.78027 6.574552,4.17377 13.160752,8.32895 19.7482906,12.48218 7.65914292,4.83497 15.285209,9.72129 22.9116214,14.60766 8.68162,5.56185 17.376195,11.10302 26.077636,16.63379 3.643421,2.31596 7.283775,4.63663 10.921875,6.96094 9.295274,5.9354 18.610727,11.8366 27.976563,17.66016 0.86633,0.54084 1.732661,1.08168 2.625244,1.63891 4.209744,2.60762 8.396214,5.05791 12.874756,7.17359 0.358557,-4.46917 0.639515,-8.93654 0.862305,-13.41407 0.096,-1.80288 0.207208,-3.60499 0.330078,-5.40625 0.19074,-2.93446 0.316832,-5.8664 0.432617,-8.80468 0.07154,-0.93538 0.143086,-1.87076 0.216797,-2.83448 0.147278,-5.06395 0.147278,-5.06395 -2.404053,-9.23437 -2.397713,-1.64132 -4.859251,-2.96592 -7.437744,-4.30615 -2.177177,-1.28753 -4.350069,-2.58233 -6.519531,-3.88282 -1.799561,-1.0533 -3.602716,-2.10026 -5.406159,-3.14691 -3.247137,-1.88493 -6.488599,-3.77958 -9.73056,-5.6734 -0.641535,-0.3745 -1.28307,-0.749 -1.944046,-1.13486 -5.09297,-2.97567 -10.1609,-5.9911 -15.212204,-9.03701 -8.601941,-5.185 -17.235833,-10.31489 -25.875,-15.4375 -9.61912,-5.7045 -19.2283123,-11.424417 -28.8125001,-17.187504 -9.4801159,-5.700467 -18.9851639,-11.357778 -28.4999999,-17 -9.763553,-5.790112 -19.518245,-11.594035 -29.25,-17.4375 -0.999668,-0.600139 -1.999336,-1.200279 -3.029297,-1.818604 -4.894671,-2.94028 -9.785886,-5.886193 -14.673828,-8.837646 -0.936826,-0.56469 -1.873652,-1.12938 -2.838867,-1.711182 -1.762219,-1.062383 -3.523347,-2.126579 -5.283203,-3.192871 -1.153872,-0.695248 -1.153872,-0.695248 -2.331055,-1.404541 -0.673535,-0.407263 -1.34707,-0.814526 -2.041016,-1.234131 -3.546694,-1.97243 -6.886555,1.475708 -10.052735,3.261475 z m -21.5,28.875 c -2.55148,1.506041 -5.09023,3.028765 -7.625,4.5625 -0.71285,0.418301 -1.4257,0.836601 -2.16016,1.267578 -5.06376,3.089358 -10.84789,6.965504 -12.77174,12.882812 -0.56137,2.897586 -0.60778,5.65925 -0.64842,8.611573 -0.0199,1.288181 -0.0399,2.576361 -0.0604,3.903581 -0.017,1.41487 -0.0339,2.82974 -0.0506,4.24461 -0.0206,1.47986 -0.0416,2.95971 -0.063,4.43956 -0.044,3.12469 -0.0849,6.2494 -0.1233,9.37416 -0.0479,3.88995 -0.10184,7.77979 -0.15794,11.66963 -0.13253,9.23161 -0.235,18.46328 -0.31757,27.69546 -0.0221,2.37668 -0.047,4.75332 -0.0723,7.12997 -0.0404,3.92803 -0.0685,7.85599 -0.0883,11.78418 -0.009,1.46116 -0.0211,2.92231 -0.0373,4.38341 -0.98803,18.78943 -0.98803,18.78943 5.31275,35.51973 10.50397,8.63219 23.13469,14.74619 34.92238,21.4393 12.847744,7.29611 25.566751,14.80013 38.175276,22.5021 0.62306,0.38015 1.246121,0.7603 1.888061,1.15196 3.0578,1.86608 6.112858,3.73635 9.16272,5.61538 13.365555,8.91027 13.365555,8.91027 28.714844,11.82251 6.0552,-1.46588 11.558427,-4.09217 17,-7.0625 0.731462,-0.39357 1.462925,-0.78714 2.216553,-1.19263 7.223543,-3.92007 14.2891093,-8.09713 21.3488766,-12.30249 4.6911444,-2.77931 9.4092724,-5.51252 14.1220704,-8.25488 4.105207,-2.39406 8.209059,-4.79043 12.3125,-7.1875 0.961963,-0.56155 1.923926,-1.1231 2.915039,-1.70166 9.967752,-5.82623 19.896856,-11.7145 29.709961,-17.79834 0.78802,-0.48034 1.57604,-0.96068 2.387939,-1.45557 6.2562,-3.92332 9.502984,-7.41846 11.787842,-14.54053 0.66318,-3.81202 0.605465,-5.86143 -0.800781,-9.5039 -4.858747,-4.54101 -11.266572,-7.34346 -17.100586,-10.41846 -4.700487,-2.56397 -9.161191,-5.4792 -13.649414,-8.39404 -1.844086,-1.1825 -3.689153,-2.36347 -5.535156,-3.54297 -0.932154,-0.59603 -1.864307,-1.19206 -2.824707,-1.80616 -5.006891,-3.18481 -10.042339,-6.32373 -15.077637,-9.46337 -7.116795,-4.43864 -14.225544,-8.88887 -21.3125001,-13.375 -10.1141035,-6.40007 -20.2662999,-12.73876 -30.4194339,-19.07666 -5.028031,-3.13924 -10.054219,-6.28142 -15.080566,-9.42334 -1.999991,-1.25002 -3.999991,-2.50002 -6,-3.75 -4,-2.5 -8,-5 -12,-7.5 -0.990403,-0.619 -1.980806,-1.23799 -3.001221,-1.87574 -1.995967,-1.2475 -3.991898,-2.49506 -5.987793,-3.74267 -5.061395,-3.16374 -10.12346,-6.32639 -15.186767,-9.487063 -2.045616,-1.277275 -4.09119,-2.554618 -6.136719,-3.832031 -0.990564,-0.618509 -1.981128,-1.237017 -3.001709,-1.874268 -7.197696,-4.498188 -14.378092,-9.023206 -21.536622,-13.583496 -4.32034,-2.741913 -8.68646,-5.350692 -13.14917,-7.854736 z"
       fill="#fdfdfc"
       transform="translate(210.94629,43.788574)"
       id="path1-3" /><path
       d="m 0,0 c 2.0544434,1.0847168 2.0544434,1.0847168 4.0898437,2.4492188 0.7742432,0.51208 1.5484864,1.0241601 2.3461915,1.5517578 1.238225,0.8348291 1.238225,0.8348291 2.5014648,1.6865234 1.776617,1.1768797 3.55399,2.3526177 5.332031,3.5273438 1.393396,0.9240162 1.393396,0.9240162 2.814942,1.8666992 4.979285,3.276438 10.009471,6.47231 15.040527,9.668457 0.953826,0.608035 1.907651,1.216069 2.890381,1.842529 0.884377,0.562434 1.768755,1.124868 2.679931,1.704346 0.783912,0.498545 1.567823,0.99709 2.375489,1.510742 C 41.978928,27.026894 41.978928,27.026894 44,28 c 0,0.66 0,1.32 0,2 0.835312,0.232031 1.670625,0.464062 2.53125,0.703125 4.093217,1.530347 7.35782,3.621366 10.96875,6.046875 1.516293,0.99966 3.033254,1.998309 4.550781,2.996094 0.802603,0.529643 1.605205,1.059287 2.432129,1.60498 4.373219,2.864862 8.790021,5.660874 13.20459,8.461426 1.875038,1.191347 3.750037,2.382754 5.625,3.574219 0.938438,0.59603 1.876875,1.19206 2.84375,1.806152 2.824051,1.794611 5.646666,3.591457 8.46875,5.38916 8.55216,5.447526 17.1093,10.886527 25.6875,16.292969 8.4287,5.313785 16.82188,10.682285 25.21143,16.057617 9.56986,6.130901 19.15664,12.234903 28.74804,18.332033 2.81021,1.78763 5.61891,3.5776 8.42725,5.36816 9.18768,5.85607 18.37941,11.70266 27.64404,17.43653 4.55233,2.82625 4.55233,2.82625 5.65674,3.93066 0.31581,4.14617 0.357,8.2963 0.40503,12.45337 0.0215,1.39381 0.0554,2.78749 0.10254,4.18066 0.47485,14.17301 0.47485,14.17301 -4.73535,19.82373 -2.86504,2.49324 -5.79245,4.52863 -9.08472,6.41724 -0.70165,0.42015 -1.40331,0.84031 -2.12622,1.27319 -2.17835,1.29945 -4.36879,2.57642 -6.56128,3.85181 -1.26905,0.75252 -2.53731,1.50638 -3.80469,2.26172 -3.48511,2.06983 -6.98415,4.11511 -10.48584,6.15674 -5.10094,2.97746 -10.19432,5.96788 -15.28921,8.95569 -1.9194,1.12535 -3.83909,2.25019 -5.75888,3.37487 -5.89759,3.45531 -11.79258,6.91482 -17.67725,10.39209 -49.486284,29.21561 -49.486284,29.21561 -61.597411,26.21045 -4.929926,-1.66947 -9.398146,-3.83056 -13.875,-6.47656 -1.570924,-0.92825 -1.570924,-0.92825 -3.173584,-1.87524 -6.348231,-3.803 -12.666466,-7.65455 -18.978272,-11.51758 -7.605725,-4.65216 -15.26557,-9.18217 -23.020019,-13.58203 C 15.347221,207.05968 10.393401,204.1539 5.4375,201.25 c -6.10280043,-3.57417 -12.2107881,-7.13502 -18.371094,-10.60938 -0.938357,-0.53012 -1.876714,-1.06025 -2.843506,-1.60644 -1.754587,-0.9886 -3.51173,-1.97268 -5.271972,-2.95117 -18.405998,-10.37763 -18.405998,-10.37763 -21.858094,-19.47321 -1.859945,-6.67718 -2.509011,-12.74312 -2.420959,-19.65668 0.0013,-1.0577 0.0027,-2.1154 0.004,-3.20515 0.009,-3.49959 0.04061,-6.99853 0.0741,-10.49797 0.01475,-2.47517 0.02873,-4.95035 0.04199,-7.42554 0.03274,-5.36008 0.07745,-10.71991 0.129883,-16.07983 0.05916,-6.07842 0.09857,-12.156703 0.125,-18.235353 0.03183,-7.302185 0.07865,-14.604087 0.143452,-21.906057 0.0351,-3.968378 0.06457,-7.93659 0.07957,-11.9051 0.01496,-3.759847 0.04941,-7.519045 0.09816,-11.278601 0.01483,-1.386673 0.023,-2.773437 0.0239,-4.16019 0.01042,-8.414015 0.148391,-15.304235 6.033889,-21.843573 4.760005,-4.645346 10.922636,-7.761917 16.636658,-11.087631 2.587483,-1.5102139 5.120263,-3.0750165 7.625,-4.71875 0.869875,-0.5638843 0.869875,-0.5638843 1.757324,-1.1391602 C -10.96593,2.4342576 -9.3850451,1.3854727 -7.8047105,0.3359375 -4.4709916,-1.2519789 -3.4734975,-0.9915358 0,0 Z m -6,17 c -2.5514816,1.506041 -5.090232,3.028765 -7.625,4.5625 -0.712852,0.418301 -1.425703,0.836602 -2.160156,1.267578 -5.063761,3.089358 -10.847891,6.965504 -12.771744,12.882813 -0.561372,2.897585 -0.607777,5.65925 -0.648422,8.611572 -0.01994,1.288181 -0.03989,2.576363 -0.06044,3.90358 -0.01704,1.414869 -0.03392,2.82974 -0.05064,4.244613 -0.02065,1.479858 -0.04165,2.959712 -0.06297,4.43956 -0.04403,3.124689 -0.08488,6.249398 -0.123307,9.374161 -0.04793,3.889951 -0.101839,7.779786 -0.157938,11.669626 -0.132526,9.231607 -0.234992,18.46328 -0.317564,27.695467 -0.02207,2.37668 -0.04701,4.75331 -0.07229,7.12996 -0.04046,3.92803 -0.06853,7.85599 -0.0883,11.78418 -0.0088,1.46116 -0.02108,2.92231 -0.03725,4.38341 -0.988035,18.78944 -0.988035,18.78944 5.312746,35.51973 10.503969,8.63219 23.1346913,14.7462 34.922378,21.4393 12.847747,7.29612 25.566753,14.80013 38.175278,22.50211 0.62306,0.38014 1.246121,0.76029 1.888062,1.15196 3.057799,1.86608 6.112857,3.73635 9.162719,5.61537 C 72.650711,224.08777 72.650711,224.08777 88,227 c 6.0552,-1.46588 11.558427,-4.09217 17,-7.0625 0.73146,-0.39357 1.46292,-0.78713 2.21655,-1.19263 7.22355,-3.92007 14.28911,-8.09712 21.34888,-12.30249 4.69114,-2.77931 9.40927,-5.51251 14.12207,-8.25488 4.10521,-2.39405 8.20906,-4.79042 12.3125,-7.1875 0.96196,-0.56155 1.92393,-1.1231 2.91504,-1.70166 9.96775,-5.82622 19.89685,-11.7145 29.70996,-17.79834 0.78802,-0.48034 1.57604,-0.96067 2.38794,-1.45557 6.2562,-3.92332 9.50298,-7.41845 11.78784,-14.54052 0.66318,-3.81202 0.60547,-5.86143 -0.80078,-9.50391 -4.85875,-4.54101 -11.26657,-7.34346 -17.10059,-10.41846 -4.70048,-2.56397 -9.16119,-5.4792 -13.64941,-8.39404 -1.84409,-1.1825 -3.68915,-2.36347 -5.53516,-3.54297 -0.93215,-0.59603 -1.8643,-1.19206 -2.8247,-1.80615 C 156.88325,118.65356 151.8478,115.51464 146.8125,112.375 139.6957,107.93637 132.58696,103.48613 125.5,99 115.3859,92.599939 105.2337,86.26124 95.080566,79.92334 90.052535,76.784108 85.026347,73.641928 80,70.5 c -1.999991,-1.250015 -3.999991,-2.500015 -6,-3.75 -4,-2.5 -8,-5 -12,-7.5 -0.990403,-0.618992 -1.980806,-1.237983 -3.001221,-1.875732 -1.995967,-1.2475 -3.991898,-2.495059 -5.987793,-3.742676 C 47.949591,50.467858 42.887526,47.305204 37.824219,44.144531 35.778603,42.867257 33.733029,41.589914 31.6875,40.3125 30.696936,39.693992 29.706372,39.075483 28.685791,38.438232 21.488095,33.940044 14.307702,29.415026 7.1491699,24.854736 2.8288318,22.112823 -1.5372881,19.504045 -6,17 Z"
       fill="#bd9323"
       transform="translate(91,97)"
       id="path2-7" /><path
       d="m 0,0 c 2.4455994,1.3383267 4.8440703,2.73627 7.2370605,4.1665039 0.8967847,0.524165 1.7935694,1.0483301 2.7175293,1.5883789 1.9113552,1.1183197 3.8200772,2.2411494 5.7263182,3.3681641 2.922092,1.7256061 5.85266,3.4357761 8.786621,5.1411131 6.05414,3.519779 12.099651,7.054195 18.144532,10.589844 3.957657,2.313658 7.916028,4.626091 11.875,6.9375 0.976626,0.57041 1.953251,1.14082 2.959472,1.728516 6.46806,3.773298 12.952513,7.517199 19.44458,11.249023 22.542009,12.962341 22.542009,12.962341 28.720947,17.084961 0.84949,0.56332 1.69898,1.126641 2.57422,1.707031 4.307,4.07119 6.18651,7.9129 6.77385,13.755203 0.11475,4.289352 0.10233,8.560621 0.0426,12.850266 -0.007,1.580396 -0.0132,3.160802 -0.0172,4.741211 -0.0152,4.136435 -0.0544,8.272295 -0.0988,12.408505 -0.0411,4.22997 -0.0592,8.46002 -0.0793,12.69013 -0.0428,8.28281 -0.11092,16.56516 -0.19531,24.84765 -14.778264,-8.43017 -14.778264,-8.43017 -21.183593,-12.18359 -0.588301,-0.34467 -1.176602,-0.68934 -1.78273,-1.04445 -1.218885,-0.71438 -2.437551,-1.42913 -3.655991,-2.14427 -1.810769,-1.06259 -3.622499,-2.12354 -5.434326,-3.18433 -6.781242,-3.9744 -13.537286,-7.98842 -20.273209,-12.03914 C 55.949138,110.4509 49.59371,106.68168 43.236816,102.91431 32.845301,96.755009 22.464383,90.57903 12.112061,84.354004 c -9.480114,-5.700471 -18.9851645,-11.357778 -28.5,-17 -12.729024,-7.548734 -25.432035,-15.139251 -38.114747,-22.765625 -4.814019,-2.893789 -9.631017,-5.782611 -14.447753,-8.671875 -1.64715,-0.988259 -3.294286,-1.976537 -4.941407,-2.964844 -0.678772,-0.407263 -1.357544,-0.814526 -2.056884,-1.234131 -0.474939,-0.284963 -0.949878,-0.569926 -1.439209,-0.863525 1.50582,-4.360918 4.287072,-5.583409 8.230468,-7.707031 1.276218,-0.700838 2.551417,-1.403533 3.825684,-2.107911 0.654824,-0.359507 1.309647,-0.719014 1.984314,-1.089416 3.092604,-1.729181 6.114255,-3.569315 9.135315,-5.419861 0.588366,-0.358933 1.176733,-0.717867 1.782928,-1.087677 1.785635,-1.090182 3.569902,-2.182568 5.353791,-3.275604 C -17.089153,-8.2012561 -17.089153,-8.2012561 0,0 Z m -37.450439,23.916504 c -0.770215,0.433769 -1.54043,0.867539 -2.333985,1.314453 -0.726387,0.423457 -1.452773,0.846914 -2.201172,1.283203 -0.654924,0.377776 -1.309848,0.755552 -1.984619,1.144776 -0.701774,0.591558 -0.701774,0.591558 -1.417724,1.195068 0,0.99 0,1.98 0,3 2.017973,1.4667 3.961408,2.695177 6.121093,3.921875 0.963217,0.564904 0.963217,0.564904 1.945893,1.14122 2.11774,1.239158 4.244049,2.462789 6.370514,3.686905 1.473607,0.859221 2.946502,1.719665 4.418701,2.581299 2.976879,1.741491 5.956377,3.478362 8.937744,5.212158 5.706803,3.325182 11.3636747,6.731377 17.01855455,10.144043 C 10.653482,65.294385 21.923464,71.976768 33.20015,78.64949 c 6.462727,3.824957 12.919304,7.660256 19.37593,11.495499 2.021673,1.200519 4.043773,2.400315 6.06601,3.599884 5.995967,3.557307 11.989866,7.117817 17.971863,10.698577 2.525379,1.51116 5.052638,3.01916 7.580139,4.52676 1.187475,0.70951 2.374013,1.4206 3.55957,2.13331 1.624937,0.97672 3.253296,1.94775 4.881836,2.91845 0.917007,0.54938 1.834014,1.09877 2.778809,1.6648 2.077396,1.32359 2.077396,1.32359 4.197754,1.16723 0.07463,-4.28666 0.128825,-8.57298 0.164794,-12.8601 0.01501,-1.4558 0.03542,-2.91155 0.06152,-4.367191 0.03674,-2.102733 0.05349,-4.204864 0.06665,-6.307861 0.01571,-1.262073 0.03142,-2.524146 0.04761,-3.824463 -0.627809,-6.71058 -3.19276,-11.201819 -8.340576,-15.640381 -2.434385,-1.767725 -2.434385,-1.767725 -5.1875,-3.375 C 85.886135,70.154321 85.34771,69.829639 84.792969,69.495117 76.407553,64.479311 67.907677,59.652063 59.436279,54.783691 53.146068,51.166709 46.875953,47.516325 40.612061,43.854004 c -3.999312,-2.334514 -7.999545,-4.667446 -12,-7 -1.115684,-0.650977 -2.231368,-1.301953 -3.38086,-1.972656 -3.45356,-2.013989 -6.911243,-4.020812 -10.36914,-6.027344 C 13.815342,28.242988 12.768623,27.631973 11.690186,27.002441 -8.0640694,15.563115 -17.42676,12.211163 -37.450439,23.916504 Z"
       fill="#5d3a0a"
       transform="translate(192.38794,51.145996)"
       id="path3-7" /></g></svg>
