<svg id="Capa_1" data-name="Capa 1" xmlns="http://www.w3.org/2000/svg" viewBox="0 0 510.8 343.13"><defs><style>.cls-1{fill:#fff;}</style></defs><path class="cls-1" d="M74,131.18q9.89,12.12,15.3,29.64L59,273.36h27.1v30.28h-51a51.61,51.61,0,0,1-10-13.87,70.91,70.91,0,0,1-5.58-16.41l30-112.22H22.65v-30Z" transform="translate(-19.46 -123.21)"/><path class="cls-1" d="M164.19,124.8v30.29H136.77V178h27.42v30.28H136.77v71.09h27.42V309.7q-16.26,0-31.88.16t-31.88.16V124.8Z" transform="translate(-19.46 -123.21)"/><path class="cls-1" d="M176.94,311.61V138.83h30.92l12.75,59V123.21H257v188.4H226L213,255.19v56.42Z" transform="translate(-19.46 -123.21)"/><path class="cls-1" d="M320.39,290.57H284.05V174.21H265.88V143.93h72.68v30.28H320.39Z" transform="translate(-19.46 -123.21)"/><path class="cls-1" d="M347,296.74v30h-27.1v23h27.42V380H319.86v67.58H283.52V296.74Z" transform="translate(-19.46 -123.21)"/><path class="cls-1" d="M438.13,418.84a34.14,34.14,0,0,1-2.23,12.43,32.79,32.79,0,0,1-6.06,10,27.06,27.06,0,0,1-9.08,6.7,26.38,26.38,0,0,1-11,2.39H385.53A25.27,25.27,0,0,1,374.69,448a27.51,27.51,0,0,1-8.93-6.7,32.58,32.58,0,0,1-6.05-10,33.93,33.93,0,0,1-2.23-12.43V314.6h36.34V420.11h7.65V293.56h36.66Z" transform="translate(-19.46 -123.21)"/><path class="cls-1" d="M450.24,466.34V293.56h30.92l12.76,59v-74.6h36.34V466.34H499.33l-13.07-56.43v56.43Z" transform="translate(-19.46 -123.21)"/></svg>