<svg id="Capa_1" data-name="Capa 1" xmlns="http://www.w3.org/2000/svg" xmlns:xlink="http://www.w3.org/1999/xlink" viewBox="0 0 510.8 343.13"><defs><style>.cls-1{fill:url(#Degradado_sin_nombre_8);}.cls-2{fill:url(#Degradado_sin_nombre_8-2);}.cls-3{fill:url(#Degradado_sin_nombre_8-3);}.cls-4{fill:url(#Degradado_sin_nombre_8-4);}.cls-5{fill:url(#Degradado_sin_nombre_8-5);}.cls-6{fill:url(#Degradado_sin_nombre_8-6);}.cls-7{fill:url(#Degradado_sin_nombre_8-7);}</style><linearGradient id="Degradado_sin_nombre_8" x1="504.22" y1="479.55" x2="60.3" y2="220.77" gradientUnits="userSpaceOnUse"><stop offset="0" stop-color="#333240"/><stop offset="0.99" stop-color="#504f66"/></linearGradient><linearGradient id="Degradado_sin_nombre_8-2" x1="523.95" y1="445.71" x2="80.02" y2="186.93" xlink:href="#Degradado_sin_nombre_8"/><linearGradient id="Degradado_sin_nombre_8-3" x1="545.42" y1="408.89" x2="101.49" y2="150.11" xlink:href="#Degradado_sin_nombre_8"/><linearGradient id="Degradado_sin_nombre_8-4" x1="569.42" y1="367.71" x2="125.49" y2="108.93" xlink:href="#Degradado_sin_nombre_8"/><linearGradient id="Degradado_sin_nombre_8-5" x1="503.03" y1="481.61" x2="59.1" y2="222.82" xlink:href="#Degradado_sin_nombre_8"/><linearGradient id="Degradado_sin_nombre_8-6" x1="526.71" y1="440.98" x2="82.79" y2="182.19" xlink:href="#Degradado_sin_nombre_8"/><linearGradient id="Degradado_sin_nombre_8-7" x1="547.42" y1="405.46" x2="103.49" y2="146.68" xlink:href="#Degradado_sin_nombre_8"/></defs><path class="cls-1" d="M74,131.18q9.89,12.12,15.3,29.64L59,273.36h27.1v30.28h-51a51.61,51.61,0,0,1-10-13.87,70.91,70.91,0,0,1-5.58-16.41l30-112.22H22.65v-30Z" transform="translate(-19.46 -123.21)"/><path class="cls-2" d="M164.19,124.8v30.29H136.77V178h27.42v30.28H136.77v71.09h27.42V309.7q-16.26,0-31.88.16t-31.88.16V124.8Z" transform="translate(-19.46 -123.21)"/><path class="cls-3" d="M176.94,311.61V138.83h30.92l12.75,59V123.21H257v188.4H226L213,255.19v56.42Z" transform="translate(-19.46 -123.21)"/><path class="cls-4" d="M320.39,290.57H284.05V174.21H265.88V143.93h72.68v30.28H320.39Z" transform="translate(-19.46 -123.21)"/><path class="cls-5" d="M347,296.74v30h-27.1v23h27.42V380H319.86v67.58H283.52V296.74Z" transform="translate(-19.46 -123.21)"/><path class="cls-6" d="M438.13,418.84a34.14,34.14,0,0,1-2.23,12.43,32.79,32.79,0,0,1-6.06,10,27.06,27.06,0,0,1-9.08,6.7,26.38,26.38,0,0,1-11,2.39H385.53A25.27,25.27,0,0,1,374.69,448a27.51,27.51,0,0,1-8.93-6.7,32.58,32.58,0,0,1-6.05-10,33.93,33.93,0,0,1-2.23-12.43V314.6h36.34V420.11h7.65V293.56h36.66Z" transform="translate(-19.46 -123.21)"/><path class="cls-7" d="M450.24,466.34V293.56h30.92l12.76,59v-74.6h36.34V466.34H499.33l-13.07-56.43v56.43Z" transform="translate(-19.46 -123.21)"/></svg>